<?xml version="1.0" encoding="UTF-8"?><svg id="a" xmlns="http://www.w3.org/2000/svg" viewBox="0 0 64 64"><path d="m41.44,20.53c0,3.81.07,7.62-.03,11.43-.04,1.56.36,2.52,1.56,3.5,5.1,4.14,6.95,11.06,4.96,17.79-1.8,6.1-7.47,10.6-13.55,10.75-5.86.14-11.85-4.38-13.77-10.4-2.17-6.78-.24-14.17,4.91-18.2,1.22-.95,1.59-1.92,1.58-3.49-.06-8.07-.09-16.14,0-24.2.07-5.42,4.79-8.97,9.44-7.28,2.93,1.07,4.82,4.02,4.87,7.78.05,4.11.01,8.22.01,12.33Zm-3.32,1.35c0-4.11.02-8.22-.01-12.32,0-.96-.09-1.95-.31-2.87-.42-1.79-1.59-2.72-3.26-2.87-1.66-.15-2.9.59-3.69,2.22-.47.97-.45,2.01-.45,3.06,0,8.29-.04,16.58.04,24.87.02,1.75-.4,2.74-1.89,3.64-4.66,2.84-6.58,8.91-4.82,14.5,1.71,5.44,6.61,8.73,11.87,7.98,4.77-.68,8.64-4.49,9.53-9.39.98-5.38-1.02-10.48-5.35-13.16-1.32-.82-1.74-1.73-1.7-3.34.11-4.1.04-8.22.04-12.32ZM0,30.58c.42-4.79,2.61-9.92,4.94-14.99.61-1.33,1.35-2.61,2.19-3.77,1.27-1.74,2.81-1.71,4.14,0,.57.73,1.06,1.56,1.48,2.41,2.24,4.55,3.96,9.34,5.13,14.33,1.42,6.05-1.7,12.31-6.6,13.5C5.2,43.56,0,38.71,0,30.58Zm9.2-15.86c-2.79,5.69-5.51,10.96-5.81,17.15-.18,3.68,2.15,6.42,5.09,6.69,4.04.37,7.15-3.44,6.28-8.23-.97-5.35-2.97-10.35-5.56-15.61Zm-1.92,21.45c.86.7,1.81,1.34,2.71.2.82-1.04.54-2.09-.4-2.91-1.05-.92-1.46-2.11-1.4-3.54.06-1.39-.17-2.69-1.76-2.65-1.64.04-1.52,1.59-1.7,2.66.18,2.52.7,4.72,2.56,6.24Z" style="fill:#8b8b8b; stroke-width:0px;"/><path d="m56.85,33.88c-1.56,0-3.13.03-4.69-.01-1.07-.03-1.91-.6-1.95-1.84-.03-1.24.8-1.92,1.85-1.94,3.33-.06,6.67-.06,10,0,1.02.02,1.93.53,1.93,1.84,0,1.41-.89,1.92-2.04,1.94-1.7.03-3.4,0-5.1,0Zm.33-12.07c1.63,0,3.27.04,4.9-.02,1.06-.04,1.9-.58,1.89-1.87-.01-1.29-.85-1.8-1.93-1.81-3.27-.03-6.54-.03-9.81-.02-1.07,0-1.98.49-2,1.75-.03,1.36.88,1.94,2.04,1.97,1.63.04,3.27,0,4.9,0,0,0,0,0,0,0Zm-4.87-15.69c-1.22-.04-2.07.52-2.06,1.85.01,1.24.94,1.75,1.99,1.75,3.26.03,6.52.01,9.77.01,1.09,0,1.92-.5,1.94-1.77.02-1.27-.77-1.82-1.87-1.83-1.63-.02-3.26,0-4.89,0-1.63,0-3.26.03-4.89-.01Zm5.61,51.81c1.42,0,2.85.03,4.27-.01.99-.03,1.74-.57,1.78-1.73.04-1.27-.73-1.91-1.81-1.93-2.85-.05-5.7-.04-8.54,0-1.07.01-1.88.57-1.87,1.86,0,1.3.84,1.79,1.9,1.82,1.42.04,2.85.01,4.27.01h0Zm-25.51-17.74c-.62.3-1.27.56-1.85.92-3.71,2.31-4.83,7.51-2.49,11.42,2.24,3.73,7.13,4.7,10.44,2.04,2.35-1.89,3.3-4.5,2.93-7.63-.41-3.47-2.38-5.56-5.3-6.71-1.24-.39-2.49-.37-3.74-.05Zm29.87,2.08h-7.36c-1,.08-1.66.69-1.66,1.88,0,1.07.6,1.73,1.49,1.8l7.75-.03c.89-.1,1.51-.75,1.49-1.82-.03-1.17-.71-1.77-1.71-1.83Z" style="fill:#519c91; stroke-width:0px;"/><path d="m36.16,40.23c-1.24-.39-2.49-.37-3.74-.05,0-6.92.01-13.84.02-20.77h0c0-2.66.01-5.32.02-7.99,0-.34,0-.68,0-1.02,0-.14,0-.28,0-.42v-.02s0-.04,0-.06c0-.02,0-.04,0-.06,0-.28.07-.55.19-.79.23-.62.69-1.03,1.38-1.07.31-.02.59.04.84.15.73.24,1.27.91,1.27,1.71v.67h0c0,.09,0,.18,0,.28,0,2.87.01,5.75.02,8.62h-.01c0,6.94.02,13.87.03,20.81Z" style="fill:#c3c3c3; stroke-width:0px;"/></svg>