<?xml version="1.0" encoding="UTF-8"?><svg id="e" xmlns="http://www.w3.org/2000/svg" viewBox="0 0 64 64"><path d="m42.97,35.46c-1.2-.98-1.6-1.94-1.56-3.5.09-3.81.03-7.62.03-11.43,0-4.11.03-8.22-.01-12.33-.04-3.75-1.94-6.71-4.87-7.78-4.65-1.69-9.38,1.86-9.44,7.28-.1,8.07-.07,16.14,0,24.2.01,1.57-.36,2.54-1.58,3.49-5.15,4.03-7.08,11.42-4.91,18.2,1.92,6.02,7.91,10.54,13.77,10.4,6.07-.15,11.75-4.65,13.55-10.75,1.98-6.73.13-13.65-4.96-17.79Zm2.16,15.25c-.89,4.9-4.76,8.71-9.53,9.39-5.26.75-10.16-2.55-11.87-7.98-1.76-5.59.16-11.66,4.82-14.5,1.48-.9,1.9-1.89,1.89-3.64-.08-8.29-.03-16.58-.04-24.87,0-1.05-.02-2.09.45-3.06.79-1.63,2.03-2.36,3.69-2.22,1.67.15,2.83,1.08,3.26,2.87.22.93.3,1.91.31,2.87.03,4.11.01,8.22.01,12.32,0,4.11.07,8.22-.04,12.32-.04,1.61.38,2.53,1.7,3.34,4.33,2.68,6.32,7.78,5.35,13.16ZM12.75,14.24c-.42-.85-.91-1.67-1.48-2.41-1.33-1.71-2.87-1.75-4.14,0-.84,1.16-1.58,2.44-2.19,3.77C2.61,20.66.42,25.79,0,30.58c0,8.13,5.2,12.97,11.28,11.5,4.91-1.19,8.03-7.45,6.6-13.5-1.17-5-2.89-9.79-5.13-14.33Zm-4.27,24.32c-2.94-.27-5.27-3.01-5.09-6.69.3-6.19,3.02-11.46,5.81-17.15,2.59,5.27,4.59,10.26,5.56,15.61.87,4.79-2.24,8.6-6.28,8.23Zm1.51-2.19c-.9,1.14-1.85.5-2.71-.2-1.86-1.52-2.38-3.73-2.56-6.24.18-1.07.06-2.62,1.7-2.66,1.58-.04,1.81,1.26,1.76,2.65-.06,1.43.35,2.62,1.4,3.54.94.82,1.23,1.87.4,2.91Z" style="fill:#8b8b8b; stroke-width:0px;"/><path d="m63.97,56.19c-.04,1.15-.78,1.69-1.78,1.73-1.42.05-2.85.01-4.27.01,0,0,0,0,0,.01-1.42,0-2.85.03-4.27-.01-1.06-.03-1.9-.52-1.9-1.82,0-1.29.8-1.84,1.87-1.86,2.85-.04,5.7-.04,8.54,0,1.08.02,1.85.66,1.81,1.93Zm-22.52-9.25c-.41-3.47-2.38-5.56-5.3-6.71,0-3.65,0-7.3-.01-10.95h0v-10.65h0c0-2.67-.01-5.35-.02-8.02v.04s0-.24,0-.24v-1.32c0-1-.82-1.81-1.84-1.81s-1.84.81-1.84,1.81c0,.02,0,.04,0,.06,0,.02,0,.04,0,.06v.55s0,0,0,0c0,2.96-.01,5.91-.02,8.87v10.65c0,3.63,0,7.27-.01,10.9-.62.3-1.27.56-1.85.92-3.71,2.31-4.83,7.51-2.49,11.42,2.24,3.73,7.13,4.7,10.44,2.04,2.35-1.89,3.3-4.5,2.93-7.63Z" style="fill:#c24a48; stroke-width:0px;"/><path d="m52.16,33.87c-1.07-.03-1.91-.6-1.95-1.84-.03-1.24.8-1.92,1.85-1.94,3.33-.06,6.67-.06,10,0,1.02.02,1.93.53,1.93,1.84,0,1.41-.89,1.92-2.04,1.94-1.7.03-3.4,0-5.1,0-1.56,0-3.13.03-4.69-.01Zm.12-12.06c1.63.04,3.27,0,4.9,0,0,0,0,0,0,0,1.63,0,3.27.04,4.9-.02,1.06-.04,1.9-.58,1.89-1.87-.01-1.29-.85-1.8-1.93-1.81-3.27-.03-6.54-.03-9.81-.02-1.07,0-1.98.49-2,1.75-.03,1.36.88,1.94,2.04,1.97Zm-.03-12.08c3.26.03,6.52.01,9.77.01,1.09,0,1.92-.5,1.94-1.77.02-1.27-.77-1.82-1.87-1.83-1.63-.02-3.26,0-4.89,0s-3.26.03-4.89-.01c-1.22-.04-2.07.52-2.06,1.85.01,1.24.94,1.75,1.99,1.75Zm10.05,32.54h-7.36c-1,.08-1.66.69-1.66,1.88,0,1.07.6,1.73,1.49,1.8l7.75-.03c.89-.1,1.51-.75,1.49-1.82-.03-1.17-.71-1.77-1.71-1.83Z" style="fill:#c3c3c3; stroke-width:0px;"/></svg>