<?xml version="1.0" encoding="UTF-8" standalone="no"?>
<!DOCTYPE svg PUBLIC "-//W3C//DTD SVG 1.1//EN" "http://www.w3.org/Graphics/SVG/1.1/DTD/svg11.dtd">
<svg xmlns="http://www.w3.org/2000/svg" version="1.1" viewBox="0.00 0.00 89.00 46.00">
<g stroke-width="2.00" fill="none" stroke-linecap="butt">
<path stroke="#1a1c1a" vector-effect="non-scaling-stroke" d="
  M 0.00 44.28
  Q 3.42 46.87 6.86 44.11
  Q 7.25 43.80 7.36 43.31
  Q 8.62 37.69 8.19 32.00
  C 7.93 28.66 8.21 25.53 8.07 22.00
  Q 7.89 17.58 8.37 3.15
  Q 8.45 0.76 6.05 0.72
  L 2.62 0.66
  Q 0.27 0.62 0.21 2.97
  L 0.00 12.13"
/>
<path stroke="#424442" vector-effect="non-scaling-stroke" d="
  M 12.93 5.03
  L 12.26 5.79
  A 1.12 1.11 -24.0 0 0 11.97 6.54
  L 12.14 40.16
  A 1.48 1.48 0.0 0 0 13.63 41.64
  L 44.77 41.55"
/>
<path stroke="#242624" vector-effect="non-scaling-stroke" d="
  M 44.77 41.55
  Q 45.38 41.86 46.13 41.85
  Q 46.82 41.84 46.68 42.52
  Q 46.64 42.72 46.53 42.89
  Q 45.65 44.17 47.21 44.11
  Q 49.01 44.04 50.74 44.00
  Q 52.15 43.97 54.16 44.68
  Q 56.14 45.38 58.50 45.38
  Q 73.25 45.36 87.28 45.37
  Q 88.55 45.37 88.55 44.10
  L 88.59 1.99
  A 1.34 1.34 0.0 0 0 87.24 0.65
  L 55.29 0.94
  Q 54.71 0.95 54.28 1.33
  L 53.68 1.86
  Q 53.11 2.36 52.42 2.04
  Q 50.79 1.27 49.31 1.89
  Q 48.77 2.11 48.18 2.11
  L 46.40 2.12
  Q 45.64 2.12 46.01 2.79
  Q 46.10 2.96 46.17 3.15
  Q 46.48 3.96 45.62 3.93
  Q 43.75 3.88 42.00 4.18
  Q 41.78 4.21 41.57 4.13
  Q 41.35 4.05 41.25 4.32
  A 0.46 0.46 0.0 0 1 40.84 4.61
  Q 35.92 4.77 32.01 4.54
  C 31.39 4.50 30.81 4.12 30.23 4.11
  Q 21.54 4.01 12.93 5.03"
/>
<path stroke="#464947" vector-effect="non-scaling-stroke" d="
  M 44.77 41.55
  L 73.53 41.65
  A 1.08 1.07 0.0 0 0 74.61 40.58
  L 74.69 27.99"
/>
<path stroke="#1b3a1a" vector-effect="non-scaling-stroke" d="
  M 74.69 27.99
  Q 76.89 28.22 76.79 24.97
  Q 76.69 21.98 76.49 20.71
  Q 76.41 20.22 76.55 19.74
  Q 78.10 14.52 74.84 11.97"
/>
<path stroke="#464947" vector-effect="non-scaling-stroke" d="
  M 74.84 11.97
  L 74.58 5.94
  A 0.86 0.86 0.0 0 0 73.72 5.11
  L 12.93 5.03"
/>
<path stroke="#395737" vector-effect="non-scaling-stroke" d="
  M 74.84 11.97
  L 74.69 27.99"
/>
<path stroke="#3b3e3b" vector-effect="non-scaling-stroke" d="
  M 77.60 30.84
  Q 77.11 30.60 76.82 30.09
  Q 76.14 28.90 75.84 30.24
  Q 75.71 30.82 76.06 31.30
  Q 76.36 31.72 76.88 31.68
  Q 80.27 31.41 83.52 31.53
  A 0.71 0.71 0.0 0 0 84.17 30.47
  Q 83.41 29.10 81.82 29.54
  A 2.81 2.76 -47.7 0 1 80.61 29.61
  Q 78.98 29.35 78.30 30.62
  A 0.53 0.52 27.3 0 1 77.60 30.84"
/>
<path stroke="#112f0f" vector-effect="non-scaling-stroke" d="
  M 3.82 6.33
  L 4.15 7.05
  Q 4.37 7.53 4.89 7.63
  Q 5.16 7.68 5.44 7.59
  A 0.96 0.95 84.7 0 0 6.12 6.76
  C 6.53 2.31 0.50 2.08 0.97 6.67
  Q 1.05 7.45 1.81 7.62
  Q 2.43 7.77 2.67 7.18
  L 3.02 6.35
  Q 3.40 5.43 3.82 6.33"
/>
<path stroke="#313330" vector-effect="non-scaling-stroke" d="
  M 4.8992 24.2483
  A 1.56 1.17 11.4 0 0 3.6013 22.7931
  A 1.56 1.17 11.4 0 0 1.8408 23.6317
  A 1.56 1.17 11.4 0 0 3.1387 25.0869
  A 1.56 1.17 11.4 0 0 4.8992 24.2483"
/>
<path stroke="#313330" vector-effect="non-scaling-stroke" d="
  M 4.7708 32.3841
  A 1.46 1.26 -13.3 0 0 3.0601 31.4938
  A 1.46 1.26 -13.3 0 0 1.9292 33.0559
  A 1.46 1.26 -13.3 0 0 3.6399 33.9462
  A 1.46 1.26 -13.3 0 0 4.7708 32.3841"
/>
<path stroke="#313330" vector-effect="non-scaling-stroke" d="
  M 4.8806 41.6686
  A 1.51 1.20 -9.2 0 0 3.1981 40.7254
  A 1.51 1.20 -9.2 0 0 1.8994 42.1514
  A 1.51 1.20 -9.2 0 0 3.5819 43.0946
  A 1.51 1.20 -9.2 0 0 4.8806 41.6686"
/>
<path stroke="#54785f" vector-effect="non-scaling-stroke" d="
  M 52.3199 11.2673
  A 0.79 0.79 0.0 0 0 51.5286 10.4786
  L 38.5086 10.5014
  A 0.79 0.79 0.0 0 0 37.7200 11.2927
  L 37.7201 11.3527
  A 0.79 0.79 0.0 0 0 38.5114 12.1414
  L 51.5314 12.1186
  A 0.79 0.79 0.0 0 0 52.3200 11.3273
  L 52.3199 11.2673"
/>
<path stroke="#7e7f7e" vector-effect="non-scaling-stroke" d="
  M 42.12 17.04
  Q 42.14 16.03 41.50 16.01
  Q 32.79 15.86 25.34 16.03
  A 0.92 0.91 -0.7 0 0 24.45 16.93
  L 24.38 30.98
  A 0.70 0.70 0.0 0 0 25.11 31.69
  Q 32.74 31.38 40.50 31.59
  Q 41.83 31.62 42.19 31.05"
/>
<path stroke="#595b58" vector-effect="non-scaling-stroke" d="
  M 42.19 31.05
  Q 43.16 31.59 44.50 31.58
  Q 52.52 31.51 60.42 31.48
  A 1.47 1.47 0.0 0 0 61.89 30.01
  L 61.88 17.05
  A 1.17 1.16 89.8 0 0 60.71 15.88
  Q 52.10 15.89 43.00 15.81
  Q 42.12 15.81 42.12 17.04"
/>
<path stroke="#737472" vector-effect="non-scaling-stroke" d="
  M 42.19 31.05
  L 42.12 17.04"
/>
<path stroke="#7e7f7e" vector-effect="non-scaling-stroke" d="
  M 34.9115 38.3564
  A 0.53 0.53 0.0 0 0 34.3871 37.8209
  L 26.5875 37.7392
  A 0.53 0.53 0.0 0 0 26.0520 38.2636
  L 26.0485 38.6036
  A 0.53 0.53 0.0 0 0 26.5729 39.1391
  L 34.3725 39.2208
  A 0.53 0.53 0.0 0 0 34.9080 38.6964
  L 34.9115 38.3564"
/>
<path stroke="#595b58" vector-effect="non-scaling-stroke" d="
  M 56.08 20.63
  L 56.13 19.41
  A 0.27 0.27 0.0 0 0 55.88 19.13
  L 50.66 18.90
  A 2.19 0.78 2.6 0 0 48.44 19.58
  L 48.43 19.78
  A 2.19 0.78 2.6 0 0 50.58 20.65
  L 55.80 20.89
  A 0.27 0.27 0.0 0 0 56.08 20.63"
/>
<path stroke="#737472" vector-effect="non-scaling-stroke" d="
  M 53.1877 23.4809
  A 0.71 0.71 0.0 0 0 52.5653 22.6929
  L 49.3673 22.3172
  A 0.71 0.71 0.0 0 0 48.5793 22.9395
  L 48.5723 22.9991
  A 0.71 0.71 0.0 0 0 49.1947 23.7871
  L 52.3927 24.1628
  A 0.71 0.71 0.0 0 0 53.1807 23.5405
  L 53.1877 23.4809"
/>
<path stroke="#a26a5c" vector-effect="non-scaling-stroke" d="
  M 49.8806 26.5442
  A 0.95 0.95 0.0 0 0 48.9322 25.5926
  L 46.0122 25.5875
  A 0.95 0.95 0.0 0 0 45.0606 26.5358
  L 45.0594 27.1758
  A 0.95 0.95 0.0 0 0 46.0078 28.1274
  L 48.9278 28.1325
  A 0.95 0.95 0.0 0 0 49.8794 27.1842
  L 49.8806 26.5442"
/>
<path stroke="#684f8e" vector-effect="non-scaling-stroke" d="
  M 56.2124 26.7179
  A 0.95 0.95 0.0 0 0 55.2235 25.8086
  L 52.2461 25.9333
  A 0.95 0.95 0.0 0 0 51.3367 26.9223
  L 51.3476 27.1821
  A 0.95 0.95 0.0 0 0 52.3365 28.0914
  L 55.3139 27.9667
  A 0.95 0.95 0.0 0 0 56.2233 26.9777
  L 56.2124 26.7179"
/>
<path stroke="#4e9768" vector-effect="non-scaling-stroke" d="
  M 35.6563 24.3969
  A 1.32 1.32 0.0 0 0 35.6368 22.5302
  L 33.8935 20.8231
  A 1.32 1.32 0.0 0 0 32.0268 20.8426
  L 30.2637 22.6431
  A 1.32 1.32 0.0 0 0 30.2832 24.5098
  L 32.0265 26.2169
  A 1.32 1.32 0.0 0 0 33.8932 26.1974
  L 35.6563 24.3969"
/>
</g>
<path fill="#1f211f" d="
  M 0.00 0.00
  L 89.00 0.00
  L 89.00 46.00
  L 0.00 46.00
  L 0.00 44.28
  Q 3.42 46.87 6.86 44.11
  Q 7.25 43.80 7.36 43.31
  Q 8.62 37.69 8.19 32.00
  C 7.93 28.66 8.21 25.53 8.07 22.00
  Q 7.89 17.58 8.37 3.15
  Q 8.45 0.76 6.05 0.72
  L 2.62 0.66
  Q 0.27 0.62 0.21 2.97
  L 0.00 12.13
  L 0.00 0.00
  Z
  M 12.93 5.03
  L 12.26 5.79
  A 1.12 1.11 -24.0 0 0 11.97 6.54
  L 12.14 40.16
  A 1.48 1.48 0.0 0 0 13.63 41.64
  L 44.77 41.55
  Q 45.38 41.86 46.13 41.85
  Q 46.82 41.84 46.68 42.52
  Q 46.64 42.72 46.53 42.89
  Q 45.65 44.17 47.21 44.11
  Q 49.01 44.04 50.74 44.00
  Q 52.15 43.97 54.16 44.68
  Q 56.14 45.38 58.50 45.38
  Q 73.25 45.36 87.28 45.37
  Q 88.55 45.37 88.55 44.10
  L 88.59 1.99
  A 1.34 1.34 0.0 0 0 87.24 0.65
  L 55.29 0.94
  Q 54.71 0.95 54.28 1.33
  L 53.68 1.86
  Q 53.11 2.36 52.42 2.04
  Q 50.79 1.27 49.31 1.89
  Q 48.77 2.11 48.18 2.11
  L 46.40 2.12
  Q 45.64 2.12 46.01 2.79
  Q 46.10 2.96 46.17 3.15
  Q 46.48 3.96 45.62 3.93
  Q 43.75 3.88 42.00 4.18
  Q 41.78 4.21 41.57 4.13
  Q 41.35 4.05 41.25 4.32
  A 0.46 0.46 0.0 0 1 40.84 4.61
  Q 35.92 4.77 32.01 4.54
  C 31.39 4.50 30.81 4.12 30.23 4.11
  Q 21.54 4.01 12.93 5.03
  Z"
/>
<path fill="#282b29" d="
  M 44.77 41.55
  L 73.53 41.65
  A 1.08 1.07 0.0 0 0 74.61 40.58
  L 74.69 27.99
  Q 76.89 28.22 76.79 24.97
  Q 76.69 21.98 76.49 20.71
  Q 76.41 20.22 76.55 19.74
  Q 78.10 14.52 74.84 11.97
  L 74.58 5.94
  A 0.86 0.86 0.0 0 0 73.72 5.11
  L 12.93 5.03
  Q 21.54 4.01 30.23 4.11
  C 30.81 4.12 31.39 4.50 32.01 4.54
  Q 35.92 4.77 40.84 4.61
  A 0.46 0.46 0.0 0 0 41.25 4.32
  Q 41.35 4.05 41.57 4.13
  Q 41.78 4.21 42.00 4.18
  Q 43.75 3.88 45.62 3.93
  Q 46.48 3.96 46.17 3.15
  Q 46.10 2.96 46.01 2.79
  Q 45.64 2.12 46.40 2.12
  L 48.18 2.11
  Q 48.77 2.11 49.31 1.89
  Q 50.79 1.27 52.42 2.04
  Q 53.11 2.36 53.68 1.86
  L 54.28 1.33
  Q 54.71 0.95 55.29 0.94
  L 87.24 0.65
  A 1.34 1.34 0.0 0 1 88.59 1.99
  L 88.55 44.10
  Q 88.55 45.37 87.28 45.37
  Q 73.25 45.36 58.50 45.38
  Q 56.14 45.38 54.16 44.68
  Q 52.15 43.97 50.74 44.00
  Q 49.01 44.04 47.21 44.11
  Q 45.65 44.17 46.53 42.89
  Q 46.64 42.72 46.68 42.52
  Q 46.82 41.84 46.13 41.85
  Q 45.38 41.86 44.77 41.55
  Z
  M 77.60 30.84
  Q 77.11 30.60 76.82 30.09
  Q 76.14 28.90 75.84 30.24
  Q 75.71 30.82 76.06 31.30
  Q 76.36 31.72 76.88 31.68
  Q 80.27 31.41 83.52 31.53
  A 0.71 0.71 0.0 0 0 84.17 30.47
  Q 83.41 29.10 81.82 29.54
  A 2.81 2.76 -47.7 0 1 80.61 29.61
  Q 78.98 29.35 78.30 30.62
  A 0.53 0.52 27.3 0 1 77.60 30.84
  Z"
/>
<path fill="#141614" d="
  M 0.00 44.28
  L 0.00 12.13
  L 0.21 2.97
  Q 0.27 0.62 2.62 0.66
  L 6.05 0.72
  Q 8.45 0.76 8.37 3.15
  Q 7.89 17.58 8.07 22.00
  C 8.21 25.53 7.93 28.66 8.19 32.00
  Q 8.62 37.69 7.36 43.31
  Q 7.25 43.80 6.86 44.11
  Q 3.42 46.87 0.00 44.28
  Z
  M 3.82 6.33
  L 4.15 7.05
  Q 4.37 7.53 4.89 7.63
  Q 5.16 7.68 5.44 7.59
  A 0.96 0.95 84.7 0 0 6.12 6.76
  C 6.53 2.31 0.50 2.08 0.97 6.67
  Q 1.05 7.45 1.81 7.62
  Q 2.43 7.77 2.67 7.18
  L 3.02 6.35
  Q 3.40 5.43 3.82 6.33
  Z
  M 4.8992 24.2483
  A 1.56 1.17 11.4 0 0 3.6013 22.7931
  A 1.56 1.17 11.4 0 0 1.8408 23.6317
  A 1.56 1.17 11.4 0 0 3.1387 25.0869
  A 1.56 1.17 11.4 0 0 4.8992 24.2483
  Z
  M 4.7708 32.3841
  A 1.46 1.26 -13.3 0 0 3.0601 31.4938
  A 1.46 1.26 -13.3 0 0 1.9292 33.0559
  A 1.46 1.26 -13.3 0 0 3.6399 33.9462
  A 1.46 1.26 -13.3 0 0 4.7708 32.3841
  Z
  M 4.8806 41.6686
  A 1.51 1.20 -9.2 0 0 3.1981 40.7254
  A 1.51 1.20 -9.2 0 0 1.8994 42.1514
  A 1.51 1.20 -9.2 0 0 3.5819 43.0946
  A 1.51 1.20 -9.2 0 0 4.8806 41.6686
  Z"
/>
<path fill="#0d480a" d="
  M 3.02 6.35
  L 2.67 7.18
  Q 2.43 7.77 1.81 7.62
  Q 1.05 7.45 0.97 6.67
  C 0.50 2.08 6.53 2.31 6.12 6.76
  A 0.96 0.95 84.7 0 1 5.44 7.59
  Q 5.16 7.68 4.89 7.63
  Q 4.37 7.53 4.15 7.05
  L 3.82 6.33
  Q 3.40 5.43 3.02 6.35
  Z"
/>
<path fill="#646664" d="
  M 74.84 11.97
  L 74.69 27.99
  L 74.61 40.58
  A 1.08 1.07 0.0 0 1 73.53 41.65
  L 44.77 41.55
  L 13.63 41.64
  A 1.48 1.48 0.0 0 1 12.14 40.16
  L 11.97 6.54
  A 1.12 1.11 -24.0 0 1 12.26 5.79
  L 12.93 5.03
  L 73.72 5.11
  A 0.86 0.86 0.0 0 1 74.58 5.94
  L 74.84 11.97
  Z
  M 52.3199 11.2673
  A 0.79 0.79 0.0 0 0 51.5286 10.4786
  L 38.5086 10.5014
  A 0.79 0.79 0.0 0 0 37.7200 11.2927
  L 37.7201 11.3527
  A 0.79 0.79 0.0 0 0 38.5114 12.1414
  L 51.5314 12.1186
  A 0.79 0.79 0.0 0 0 52.3200 11.3273
  L 52.3199 11.2673
  Z
  M 42.12 17.04
  Q 42.14 16.03 41.50 16.01
  Q 32.79 15.86 25.34 16.03
  A 0.92 0.91 -0.7 0 0 24.45 16.93
  L 24.38 30.98
  A 0.70 0.70 0.0 0 0 25.11 31.69
  Q 32.74 31.38 40.50 31.59
  Q 41.83 31.62 42.19 31.05
  Q 43.16 31.59 44.50 31.58
  Q 52.52 31.51 60.42 31.48
  A 1.47 1.47 0.0 0 0 61.89 30.01
  L 61.88 17.05
  A 1.17 1.16 89.8 0 0 60.71 15.88
  Q 52.10 15.89 43.00 15.81
  Q 42.12 15.81 42.12 17.04
  Z
  M 34.9115 38.3564
  A 0.53 0.53 0.0 0 0 34.3871 37.8209
  L 26.5875 37.7392
  A 0.53 0.53 0.0 0 0 26.0520 38.2636
  L 26.0485 38.6036
  A 0.53 0.53 0.0 0 0 26.5729 39.1391
  L 34.3725 39.2208
  A 0.53 0.53 0.0 0 0 34.9080 38.6964
  L 34.9115 38.3564
  Z"
/>
<rect fill="#438a5a" x="-7.30" y="-0.82" transform="translate(45.02,11.31) rotate(-0.1)" width="14.60" height="1.64" rx="0.79"/>
<path fill="#0d480a" d="
  M 74.84 11.97
  Q 78.10 14.52 76.55 19.74
  Q 76.41 20.22 76.49 20.71
  Q 76.69 21.98 76.79 24.97
  Q 76.89 28.22 74.69 27.99
  L 74.84 11.97
  Z"
/>
<path fill="#4d504c" d="
  M 42.19 31.05
  L 42.12 17.04
  Q 42.12 15.81 43.00 15.81
  Q 52.10 15.89 60.71 15.88
  A 1.17 1.16 89.8 0 1 61.88 17.05
  L 61.89 30.01
  A 1.47 1.47 0.0 0 1 60.42 31.48
  Q 52.52 31.51 44.50 31.58
  Q 43.16 31.59 42.19 31.05
  Z
  M 56.08 20.63
  L 56.13 19.41
  A 0.27 0.27 0.0 0 0 55.88 19.13
  L 50.66 18.90
  A 2.19 0.78 2.6 0 0 48.44 19.58
  L 48.43 19.78
  A 2.19 0.78 2.6 0 0 50.58 20.65
  L 55.80 20.89
  A 0.27 0.27 0.0 0 0 56.08 20.63
  Z
  M 53.1877 23.4809
  A 0.71 0.71 0.0 0 0 52.5653 22.6929
  L 49.3673 22.3172
  A 0.71 0.71 0.0 0 0 48.5793 22.9395
  L 48.5723 22.9991
  A 0.71 0.71 0.0 0 0 49.1947 23.7871
  L 52.3927 24.1628
  A 0.71 0.71 0.0 0 0 53.1807 23.5405
  L 53.1877 23.4809
  Z
  M 49.8806 26.5442
  A 0.95 0.95 0.0 0 0 48.9322 25.5926
  L 46.0122 25.5875
  A 0.95 0.95 0.0 0 0 45.0606 26.5358
  L 45.0594 27.1758
  A 0.95 0.95 0.0 0 0 46.0078 28.1274
  L 48.9278 28.1325
  A 0.95 0.95 0.0 0 0 49.8794 27.1842
  L 49.8806 26.5442
  Z
  M 56.2124 26.7179
  A 0.95 0.95 0.0 0 0 55.2235 25.8086
  L 52.2461 25.9333
  A 0.95 0.95 0.0 0 0 51.3367 26.9223
  L 51.3476 27.1821
  A 0.95 0.95 0.0 0 0 52.3365 28.0914
  L 55.3139 27.9667
  A 0.95 0.95 0.0 0 0 56.2233 26.9777
  L 56.2124 26.7179
  Z"
/>
<path fill="#989898" d="
  M 42.12 17.04
  L 42.19 31.05
  Q 41.83 31.62 40.50 31.59
  Q 32.74 31.38 25.11 31.69
  A 0.70 0.70 0.0 0 1 24.38 30.98
  L 24.45 16.93
  A 0.92 0.91 -0.7 0 1 25.34 16.03
  Q 32.79 15.86 41.50 16.01
  Q 42.14 16.03 42.12 17.04
  Z
  M 35.6563 24.3969
  A 1.32 1.32 0.0 0 0 35.6368 22.5302
  L 33.8935 20.8231
  A 1.32 1.32 0.0 0 0 32.0268 20.8426
  L 30.2637 22.6431
  A 1.32 1.32 0.0 0 0 30.2832 24.5098
  L 32.0265 26.2169
  A 1.32 1.32 0.0 0 0 33.8932 26.1974
  L 35.6563 24.3969
  Z"
/>
<path fill="#646664" d="
  M 56.08 20.63
  A 0.27 0.27 0.0 0 1 55.80 20.89
  L 50.58 20.65
  A 2.19 0.78 2.6 0 1 48.43 19.78
  L 48.44 19.58
  A 2.19 0.78 2.6 0 1 50.66 18.90
  L 55.88 19.13
  A 0.27 0.27 0.0 0 1 56.13 19.41
  L 56.08 20.63
  Z"
/>
<rect fill="#049537" x="-2.54" y="-2.58" transform="translate(32.96,23.52) rotate(44.4)" width="5.08" height="5.16" rx="1.32"/>
<rect fill="#989898" x="-2.32" y="-0.74" transform="translate(50.88,23.24) rotate(6.7)" width="4.64" height="1.48" rx="0.71"/>
<ellipse fill="#4d504c" cx="0.00" cy="0.00" transform="translate(3.37,23.94) rotate(11.4)" rx="1.56" ry="1.17"/>
<rect fill="#f7836b" x="-2.41" y="-1.27" transform="translate(47.47,26.86) rotate(0.1)" width="4.82" height="2.54" rx="0.95"/>
<rect fill="#824ecf" x="-2.44" y="-1.08" transform="translate(53.78,26.95) rotate(-2.4)" width="4.88" height="2.16" rx="0.95"/>
<path fill="#4d504c" d="
  M 78.30 30.62
  Q 78.98 29.35 80.61 29.61
  A 2.81 2.76 -47.7 0 0 81.82 29.54
  Q 83.41 29.10 84.17 30.47
  A 0.71 0.71 0.0 0 1 83.52 31.53
  Q 80.27 31.41 76.88 31.68
  Q 76.36 31.72 76.06 31.30
  Q 75.71 30.82 75.84 30.24
  Q 76.14 28.90 76.82 30.09
  Q 77.11 30.60 77.60 30.84
  A 0.53 0.52 27.3 0 0 78.30 30.62
  Z"
/>
<ellipse fill="#4d504c" cx="0.00" cy="0.00" transform="translate(3.35,32.72) rotate(-13.3)" rx="1.46" ry="1.26"/>
<rect fill="#989898" x="-4.43" y="-0.70" transform="translate(30.48,38.48) rotate(0.6)" width="8.86" height="1.40" rx="0.53"/>
<ellipse fill="#4d504c" cx="0.00" cy="0.00" transform="translate(3.39,41.91) rotate(-9.2)" rx="1.51" ry="1.20"/>
</svg>
