<?xml version="1.0" encoding="UTF-8" standalone="no"?>
<!DOCTYPE svg PUBLIC "-//W3C//DTD SVG 1.1//EN" "http://www.w3.org/Graphics/SVG/1.1/DTD/svg11.dtd">
<svg xmlns="http://www.w3.org/2000/svg" version="1.1" viewBox="0.00 0.00 366.00 405.00">
<g stroke-width="2.00" fill="none" stroke-linecap="butt">
<path stroke="#7e8082" vector-effect="non-scaling-stroke" d="
  M 170.09 5.71
  Q 169.81 5.91 169.80 5.98"
/>
<path stroke="#3e3e3f" vector-effect="non-scaling-stroke" d="
  M 169.80 5.98
  L 74.43 5.80
  A 3.37 3.36 1.1 0 0 71.06 9.04
  L 70.46 24.25"
/>
<path stroke="#7e8082" vector-effect="non-scaling-stroke" d="
  M 70.46 24.25
  Q 70.31 23.85 70.18 23.53
  Q 70.08 23.29 69.64 23.48"
/>
<path stroke="#949698" vector-effect="non-scaling-stroke" d="
  M 173.77 24.51
  Q 173.77 50.81 173.51 57.75
  Q 173.47 58.88 172.44 62.10"
/>
<path stroke="#68696b" vector-effect="non-scaling-stroke" d="
  M 172.44 62.10
  Q 170.25 64.82 167.00 64.86
  Q 121.62 65.35 75.75 64.89
  Q 71.92 64.85 70.24 62.28
  Q 70.08 62.04 69.84 62.21
  L 69.61 62.37
  A 0.32 0.31 -32.6 0 0 69.51 62.79
  Q 71.88 66.87 76.45 67.15"
/>
<path stroke="#949698" vector-effect="non-scaling-stroke" d="
  M 76.45 67.15
  L 77.12 73.80
  Q 77.17 74.32 77.70 74.33
  Q 83.10 74.41 88.49 74.22
  Q 91.11 74.12 90.48 75.30"
/>
<path stroke="#68696b" vector-effect="non-scaling-stroke" d="
  M 90.48 75.30
  L 57.77 75.48"
/>
<path stroke="#606263" vector-effect="non-scaling-stroke" d="
  M 57.77 75.48
  L 55.44 75.57
  A 0.51 0.51 0.0 0 0 54.95 76.08
  L 54.93 364.80"
/>
<path stroke="#949698" vector-effect="non-scaling-stroke" d="
  M 54.93 364.80
  Q 54.27 366.13 54.28 367.75
  Q 54.34 375.93 54.23 384.12
  C 54.22 384.94 54.69 385.74 54.49 386.54
  Q 54.36 387.08 53.80 387.07
  L 49.16 386.95"
/>
<path stroke="#aeb0b2" vector-effect="non-scaling-stroke" d="
  M 49.16 386.95
  Q 49.31 385.76 48.77 385.06
  Q 48.47 384.67 48.45 384.17
  C 48.19 377.19 48.62 368.78 48.62 363.25
  Q 48.64 324.88 48.67 286.50
  Q 48.67 286.25 48.75 286.02
  Q 48.88 285.66 48.88 285.27
  Q 48.88 269.05 48.89 252.83
  Q 48.89 252.72 48.94 252.62
  Q 48.98 252.55 49.04 252.47
  Q 49.11 252.38 49.11 252.22
  Q 49.16 196.07 49.10 140.08
  C 49.10 139.31 48.80 138.75 48.81 138.00
  Q 49.10 123.67 48.51 107.74
  Q 47.88 90.61 47.49 73.51
  Q 47.13 57.23 49.18 28.75
  Q 49.42 25.45 49.73 24.61"
/>
<path stroke="#68696b" vector-effect="non-scaling-stroke" d="
  M 169.80 5.98
  Q 172.34 7.60 172.33 9.50
  Q 172.25 34.02 172.26 58.50
  C 172.27 62.16 169.12 63.89 165.82 63.89
  Q 119.90 63.81 76.40 63.84
  Q 70.39 63.84 70.24 59.00
  Q 69.98 50.89 70.46 24.25"
/>
<path stroke="#545455" vector-effect="non-scaling-stroke" d="
  M 105.24 75.20
  L 90.48 75.30"
/>
<path stroke="#4c4c4d" vector-effect="non-scaling-stroke" d="
  M 55.20 364.89
  Q 55.07 364.84 54.93 364.80"
/>
<path stroke="#9a9a9c" vector-effect="non-scaling-stroke" d="
  M 49.16 386.95
  Q 48.54 387.08 47.65 386.93"
/>
<path stroke="#545455" vector-effect="non-scaling-stroke" d="
  M 55.32 387.65
  Q 54.39 387.09 53.48 387.44
  Q 52.74 387.72 53.52 387.82
  L 54.34 387.91
  A 1.36 1.31 68.3 0 1 55.05 388.23
  Q 55.70 388.81 57.04 388.94"
/>
<path stroke="#9a9a9c" vector-effect="non-scaling-stroke" d="
  M 57.04 388.94
  L 35.56 389.53
  Q 35.05 389.55 35.00 390.06
  Q 34.86 391.43 36.51 391.49
  Q 41.07 391.66 56.80 391.82"
/>
<path stroke="#464647" vector-effect="non-scaling-stroke" d="
  M 56.80 391.82
  L 34.76 391.64"
/>
<path stroke="#949698" vector-effect="non-scaling-stroke" d="
  M 181.99 24.59
  Q 180.37 24.42 179.29 24.99
  Q 178.80 25.24 179.18 25.65
  Q 180.60 27.17 180.76 29.51
  Q 181.18 35.76 181.93 42.02
  Q 182.07 43.27 182.25 44.47
  Q 184.25 58.51 185.29 71.01
  Q 185.38 72.15 185.38 73.39
  A 0.99 0.99 0.0 0 1 184.36 74.37
  Q 171.09 73.93 157.80 74.97"
/>
<path stroke="#545455" vector-effect="non-scaling-stroke" d="
  M 157.80 74.97
  L 145.74 75.24"
/>
<path stroke="#6a6b6c" vector-effect="non-scaling-stroke" d="
  M 145.74 75.24
  Q 145.02 73.87 148.64 73.90
  A 1.16 1.15 -67.2 0 0 149.49 73.55
  Q 151.17 71.80 153.42 70.82
  Q 153.88 70.62 154.18 70.21
  Q 156.23 67.44 159.27 67.11"
/>
<path stroke="#545455" vector-effect="non-scaling-stroke" d="
  M 159.27 67.11
  Q 162.80 67.30 166.26 67.07
  Q 172.01 66.69 172.44 62.10"
/>
<path stroke="#3e3e3f" vector-effect="non-scaling-stroke" d="
  M 159.27 67.11
  Q 148.34 66.57 137.40 67.32
  C 136.19 67.40 135.15 68.11 133.90 68.03
  Q 132.73 67.96 131.58 68.07
  Q 120.91 69.15 116.50 68.60
  Q 113.54 68.23 110.56 67.99
  Q 109.44 67.90 104.52 67.36
  Q 99.68 66.83 94.26 67.07
  Q 92.46 67.16 87.20 67.15"
/>
<path stroke="#545455" vector-effect="non-scaling-stroke" d="
  M 87.20 67.15
  L 76.45 67.15"
/>
<path stroke="#191919" vector-effect="non-scaling-stroke" d="
  M 316.48 200.09
  L 307.38 199.89
  A 1.28 1.28 0.0 0 1 306.13 198.61
  L 306.24 87.24
  A 1.39 1.38 0.0 0 0 304.85 85.86
  Q 258.92 86.04 216.42 85.83
  C 207.90 85.79 199.01 85.54 190.28 85.92
  C 183.61 86.22 176.87 85.55 170.28 85.61
  Q 130.68 85.92 96.49 85.90
  C 95.01 85.90 93.57 85.59 92.13 85.77
  Q 90.51 85.96 88.87 85.95
  Q 81.99 85.89 75.19 85.86
  Q 74.06 85.85 72.92 85.54
  Q 72.19 85.34 72.94 85.22
  C 76.17 84.69 77.84 80.37 74.80 78.36
  C 72.18 76.64 69.53 79.04 68.60 81.47
  Q 68.40 82.01 68.64 82.52
  Q 69.28 83.92 70.54 84.76
  Q 70.86 84.97 70.90 85.35
  Q 70.92 85.50 70.81 85.61
  Q 70.50 85.91 70.07 85.89
  Q 68.26 85.82 66.62 85.87
  A 0.58 0.58 0.0 0 0 66.06 86.45
  L 66.15 353.47
  Q 66.15 354.04 66.72 354.04
  L 305.56 353.99
  A 0.55 0.55 0.0 0 0 306.11 353.44
  L 306.30 214.14
  A 1.49 1.49 0.0 0 0 304.82 212.65
  L 294.73 212.64"
/>
<path stroke="#545455" vector-effect="non-scaling-stroke" d="
  M 317.67 213.26
  Q 316.08 218.04 316.43 221.91"
/>
<path stroke="#545455" vector-effect="non-scaling-stroke" d="
  M 316.63 364.78
  Q 316.01 365.72 315.75 365.12"
/>
<path stroke="#6d6e6f" vector-effect="non-scaling-stroke" d="
  M 315.75 365.12
  L 308.85 364.96"
/>
<path stroke="#545455" vector-effect="non-scaling-stroke" d="
  M 308.85 364.96
  Q 299.08 363.54 289.00 364.14
  Q 278.29 364.77 267.54 364.58"
/>
<path stroke="#6d6e6f" vector-effect="non-scaling-stroke" d="
  M 267.54 364.58
  L 204.97 364.56"
/>
<path stroke="#3e3e3f" vector-effect="non-scaling-stroke" d="
  M 204.97 364.56
  Q 202.74 364.29 200.50 364.24
  Q 176.79 363.71 161.25 363.93
  Q 152.37 364.05 143.50 363.92
  Q 119.32 363.58 95.52 364.08
  C 93.41 364.12 91.05 364.55 88.25 364.21
  Q 83.73 363.67 71.47 364.15
  Q 70.41 364.19 69.15 364.61
  Q 68.03 364.99 66.76 364.96
  Q 62.46 364.87 60.01 365.06"
/>
<path stroke="#6d6e6f" vector-effect="non-scaling-stroke" d="
  M 60.01 365.06
  L 57.99 365.02"
/>
<path stroke="#545455" vector-effect="non-scaling-stroke" d="
  M 57.99 365.02
  L 55.20 364.89"
/>
<path stroke="#202020" vector-effect="non-scaling-stroke" d="
  M 55.20 364.89
  L 67.40 364.92
  Q 68.35 364.92 68.81 364.08
  Q 68.84 364.01 68.98 363.75
  A 0.47 0.47 0.0 0 0 68.60 363.06
  Q 63.05 362.67 58.80 363.15
  A 1.76 1.75 84.6 0 1 56.86 361.53
  Q 56.42 355.41 56.89 349.86
  C 56.97 348.97 56.69 348.25 56.68 347.39
  Q 56.52 331.45 56.62 313.11
  Q 56.65 308.15 56.64 303.20
  Q 56.59 263.49 56.62 226.37
  C 56.62 224.84 57.06 223.40 56.85 221.88
  Q 56.62 220.24 56.62 218.58
  Q 56.63 210.36 56.63 201.97
  A 75.31 2.99 -89.9 0 1 56.64 191.32
  Q 56.69 165.25 56.46 137.26
  Q 56.38 127.65 56.55 117.27
  Q 56.93 94.98 56.46 80.75
  Q 56.44 80.23 56.39 79.71
  Q 56.35 79.22 56.66 78.84
  Q 57.12 78.26 57.07 77.48
  Q 57.04 77.11 57.36 76.92
  Q 57.52 76.83 57.69 76.76
  Q 58.11 76.60 58.13 76.18
  Q 58.14 75.85 57.77 75.48"
/>
<path stroke="#3e3e3f" vector-effect="non-scaling-stroke" d="
  M 145.74 75.24
  L 105.24 75.20"
/>
<path stroke="#6a6b6c" vector-effect="non-scaling-stroke" d="
  M 105.24 75.20
  Q 107.13 75.09 108.99 74.92
  Q 109.23 74.90 109.22 74.66
  L 109.22 74.65
  Q 109.21 74.41 108.97 74.41
  Q 101.82 74.29 94.38 73.85
  Q 93.89 73.82 93.56 73.44
  Q 92.24 71.85 90.23 71.14
  Q 88.27 70.44 87.20 67.15"
/>
<path stroke="#c3c5c6" vector-effect="non-scaling-stroke" d="
  M 46.94 24.62
  Q 45.50 52.22 45.62 79.91
  C 45.62 80.63 45.89 81.38 45.89 82.24
  C 45.89 98.75 46.50 116.93 46.41 135.25
  Q 46.41 135.47 46.49 135.68
  Q 46.63 136.04 46.63 136.43
  Q 46.63 153.64 46.63 164.61
  Q 46.63 170.09 46.63 175.21
  Q 46.63 210.89 46.63 248.26
  Q 46.63 248.64 46.50 249.01
  Q 46.39 249.31 46.39 249.62
  Q 46.39 265.41 46.34 279.61
  Q 46.34 279.97 46.23 280.31
  Q 46.15 280.55 46.15 280.80
  Q 46.14 317.84 46.10 354.80
  A 1.14 1.06 -35.9 0 1 46.02 355.21
  Q 45.91 355.48 45.91 355.76
  Q 45.85 369.69 45.89 384.95
  Q 45.89 385.18 46.13 385.18
  L 46.69 385.19
  Q 46.96 385.19 46.96 384.91
  L 47.19 280.47
  A 0.40 0.35 59.9 0 1 47.22 280.32
  Q 47.35 280.02 47.35 279.72
  Q 47.38 264.65 47.41 249.59
  Q 47.41 249.26 47.52 248.94
  Q 47.59 248.73 47.59 248.50
  Q 47.62 211.25 47.62 176.09
  Q 47.62 173.77 47.62 171.44
  Q 47.62 148.30 47.62 125.34
  C 47.62 124.69 47.41 124.28 47.41 123.56
  Q 47.29 101.60 46.74 81.85
  Q 46.44 70.93 46.81 58.75
  Q 46.88 56.36 46.93 53.75
  Q 47.19 41.55 47.94 33.13
  Q 47.99 32.60 48.10 28.87
  Q 48.16 26.73 48.65 24.63"
/>
<path stroke="#c3c5c6" vector-effect="non-scaling-stroke" d="
  M 48.97 24.60
  Q 48.46 26.59 48.44 27.50
  Q 48.16 38.80 47.56 49.24
  Q 46.27 71.24 47.35 94.63
  Q 47.82 104.82 47.94 114.66
  Q 48.13 130.42 48.14 148.63
  Q 48.14 166.31 48.13 207.36
  A 100.55 1.00 -90.0 0 0 48.12 221.58
  Q 48.13 235.91 48.13 252.51
  Q 48.13 252.90 47.99 253.27
  Q 47.90 253.53 47.90 253.79
  Q 47.88 266.92 47.84 279.66
  Q 47.84 280.00 47.73 280.31
  Q 47.66 280.52 47.66 280.75
  Q 47.63 321.12 47.63 327.53
  Q 47.63 344.94 47.37 362.34
  Q 47.19 374.60 47.65 386.93"
/>
<path stroke="#aaabac" vector-effect="non-scaling-stroke" d="
  M 47.65 386.93
  L 35.46 386.91"
/>
<path stroke="#c3c5c6" vector-effect="non-scaling-stroke" d="
  M 35.46 386.91
  Q 35.74 349.46 35.59 312.00
  Q 35.59 311.77 35.52 311.56
  Q 35.41 311.23 35.41 310.88
  Q 35.37 280.21 35.34 249.50
  Q 35.34 249.26 35.25 249.02
  Q 35.12 248.65 35.12 248.26
  Q 35.12 171.01 35.11 93.75
  Q 35.11 93.50 35.01 93.27
  Q 34.85 92.92 34.85 92.53
  L 34.86 24.76"
/>
<path stroke="#9a9a9c" vector-effect="non-scaling-stroke" d="
  M 315.75 365.12
  L 316.13 386.56"
/>
<path stroke="#6d6e6f" vector-effect="non-scaling-stroke" d="
  M 316.22 387.24
  Q 315.50 387.90 314.25 387.90
  Q 194.50 387.99 74.75 387.96
  Q 61.93 387.96 55.32 387.65"
/>
<path stroke="#9a9a9c" vector-effect="non-scaling-stroke" d="
  M 55.32 387.65
  L 55.38 365.82
  Q 55.38 365.35 55.84 365.29
  L 57.99 365.02"
/>
<path stroke="#666667" vector-effect="non-scaling-stroke" d="
  M 336.49 391.57
  L 103.70 391.80"
/>
<path stroke="#5f6061" vector-effect="non-scaling-stroke" d="
  M 103.70 391.80
  L 56.80 391.82"
/>
<path stroke="#6d6e6f" vector-effect="non-scaling-stroke" d="
  M 315.77 388.95
  L 57.04 388.94"
/>
<path stroke="#aeb0b2" vector-effect="non-scaling-stroke" d="
  M 33.86 24.79
  L 34.30 386.92"
/>
<path stroke="#949698" vector-effect="non-scaling-stroke" d="
  M 34.30 386.92
  L 29.56 386.69"
/>
<path stroke="#191919" vector-effect="non-scaling-stroke" d="
  M 96.27 394.35
  Q 88.55 394.01 80.75 393.91
  Q 75.97 393.86 71.25 393.73
  Q 69.13 393.67 66.76 393.88
  Q 64.51 394.09 62.25 394.11
  Q 50.98 394.19 39.75 394.15
  Q 37.11 394.14 38.39 395.47"
/>
<path stroke="#9a9a9c" vector-effect="non-scaling-stroke" d="
  M 35.46 386.91
  L 34.30 386.92"
/>
<path stroke="#7e8082" vector-effect="non-scaling-stroke" d="
  M 197.69 19.90
  Q 187.34 19.91 177.00 20.06
  Q 176.11 20.07 175.11 19.36
  Q 174.67 19.05 174.40 19.51
  L 174.13 19.98"
/>
<path stroke="#949698" vector-effect="non-scaling-stroke" d="
  M 174.13 19.98
  Q 174.06 19.91 173.76 19.96"
/>
<path stroke="#848586" vector-effect="non-scaling-stroke" d="
  M 197.74 24.55
  L 187.01 24.62"
/>
<path stroke="#7e8082" vector-effect="non-scaling-stroke" d="
  M 187.01 24.62
  L 181.99 24.59"
/>
<path stroke="#6a6b6c" vector-effect="non-scaling-stroke" d="
  M 181.99 24.59
  Q 178.13 24.99 175.08 23.17
  A 1.13 1.11 -79.8 0 1 174.56 22.41
  L 174.13 19.98"
/>
<path stroke="#68696b" vector-effect="non-scaling-stroke" d="
  M 186.03 75.36
  L 157.80 74.97"
/>
<path stroke="#aeb0b2" vector-effect="non-scaling-stroke" d="
  M 324.51 24.57
  Q 324.28 26.21 323.99 27.86
  Q 323.69 29.52 323.76 31.15
  Q 324.05 38.20 324.18 45.44
  Q 324.38 56.32 324.38 68.87
  Q 324.37 131.08 324.26 197.00
  Q 324.25 201.50 326.09 207.08
  Q 327.34 210.90 327.05 214.23
  Q 326.61 219.17 325.38 224.25
  Q 324.63 227.32 324.37 234.75
  Q 324.14 241.01 324.27 265.00
  Q 324.56 324.33 324.81 383.65
  C 324.81 384.58 324.49 385.79 324.72 387.01"
/>
<path stroke="#949698" vector-effect="non-scaling-stroke" d="
  M 324.72 387.01
  L 317.27 387.33"
/>
<path stroke="#68696b" vector-effect="non-scaling-stroke" d="
  M 317.27 387.33
  Q 316.65 387.43 316.22 387.24"
/>
<path stroke="#aeb0b2" vector-effect="non-scaling-stroke" d="
  M 316.22 387.24
  Q 316.07 386.85 316.13 386.56"
/>
<path stroke="#949698" vector-effect="non-scaling-stroke" d="
  M 316.13 386.56
  Q 316.98 386.21 316.97 385.25
  Q 316.84 376.17 317.00 367.09
  C 317.02 366.32 316.70 365.56 316.63 364.78"
/>
<path stroke="#68696b" vector-effect="non-scaling-stroke" d="
  M 316.63 364.78
  Q 316.21 349.15 316.19 333.50
  Q 316.13 278.08 316.43 221.91"
/>
<path stroke="#949698" vector-effect="non-scaling-stroke" d="
  M 316.43 221.91
  L 321.15 221.83
  Q 321.71 221.82 322.00 221.34
  Q 324.33 217.40 324.76 212.83
  A 0.66 0.66 0.0 0 0 323.98 212.12
  L 317.67 213.26"
/>
<path stroke="#68696b" vector-effect="non-scaling-stroke" d="
  M 317.67 213.26
  Q 311.88 213.01 307.00 213.27
  Q 306.53 213.30 306.01 212.84
  Q 305.63 212.52 305.14 212.52
  L 294.73 212.64"
/>
<path stroke="#5a5b5d" vector-effect="non-scaling-stroke" d="
  M 294.73 212.64
  Q 292.28 212.71 290.59 210.64
  Q 287.77 207.17 290.47 203.72
  C 291.32 202.64 292.17 201.69 293.69 201.66
  Q 305.21 201.47 315.86 201.71
  Q 316.40 201.73 316.49 201.19
  Q 316.60 200.58 316.48 200.09"
/>
<path stroke="#68696b" vector-effect="non-scaling-stroke" d="
  M 316.48 200.09
  C 316.35 181.78 316.58 163.43 316.11 145.17
  Q 315.93 137.99 316.42 132.78
  C 316.65 130.44 315.92 127.11 316.00 124.23
  Q 316.69 99.45 316.45 76.11
  Q 316.44 75.59 315.92 75.58
  L 307.04 75.44"
/>
<path stroke="#9a9a9c" vector-effect="non-scaling-stroke" d="
  M 308.85 364.96
  L 267.54 364.58"
/>
<path stroke="#848586" vector-effect="non-scaling-stroke" d="
  M 204.97 364.56
  L 60.01 365.06"
/>
<path stroke="#aeb0b2" vector-effect="non-scaling-stroke" d="
  M 315.98 24.56
  L 315.94 74.64
  A 0.67 0.67 0.0 0 1 315.28 75.31
  L 307.04 75.44"
/>
<path stroke="#6d6e6f" vector-effect="non-scaling-stroke" d="
  M 307.04 75.44
  L 186.03 75.36"
/>
<path stroke="#aeb0b2" vector-effect="non-scaling-stroke" d="
  M 186.03 75.36
  Q 185.44 74.74 186.72 74.43
  Q 187.25 74.30 187.80 74.32
  Q 199.26 74.58 211.73 74.01
  Q 212.89 73.96 213.05 72.82
  Q 213.24 71.50 212.68 69.96
  Q 212.53 69.56 212.74 69.18
  Q 213.16 68.41 212.38 67.90
  Q 212.08 67.70 212.11 67.34
  Q 212.12 67.20 212.15 67.07
  Q 212.25 66.54 212.02 66.06
  Q 211.31 64.57 210.92 62.89
  C 210.62 61.60 210.01 60.78 209.37 59.67
  Q 209.12 59.24 209.11 58.74
  Q 209.11 58.20 208.62 57.95
  Q 208.15 57.70 208.04 57.18
  Q 207.86 56.35 207.42 55.61
  Q 204.89 51.35 202.44 47.15
  Q 202.16 46.66 201.78 46.21
  C 201.16 45.49 201.04 44.68 200.52 43.87
  C 199.76 42.68 198.70 41.91 198.04 40.56
  Q 197.04 38.48 196.07 36.59
  Q 195.52 35.52 194.70 34.71
  Q 193.68 33.69 193.16 32.40
  C 192.41 30.51 190.90 29.17 190.06 27.31
  A 2.53 2.52 81.5 0 0 188.08 25.84
  Q 183.76 25.26 187.01 24.62"
/>
<path stroke="#363737" vector-effect="non-scaling-stroke" d="
  M 333.13 395.04
  Q 322.84 393.71 312.45 394.37"
/>
<path stroke="#606263" vector-effect="non-scaling-stroke" d="
  M 312.45 394.37
  L 104.47 394.58"
/>
<path stroke="#202020" vector-effect="non-scaling-stroke" d="
  M 104.47 394.58
  L 96.27 394.35"
/>
<path stroke="#121212" vector-effect="non-scaling-stroke" d="
  M 96.27 394.35
  L 111.82 394.15
  A 1.17 1.13 23.0 0 0 112.55 393.87
  Q 113.24 393.26 114.19 393.62
  Q 114.30 393.66 114.34 393.56
  Q 114.41 393.39 114.54 393.38
  Q 114.65 393.38 114.54 393.37
  Q 114.48 393.36 114.44 393.34
  Q 114.25 393.21 114.02 393.24
  Q 113.75 393.28 113.49 393.26
  Q 113.24 393.23 113.02 393.08
  Q 112.93 393.02 113.00 392.94
  Q 113.39 392.44 112.75 392.44
  Q 108.20 392.45 103.70 391.80"
/>
<path stroke="#9a9a9c" vector-effect="non-scaling-stroke" d="
  M 336.76 391.39
  Q 336.36 391.02 337.10 390.54
  A 0.59 0.58 60.7 0 0 337.31 389.79
  Q 337.03 389.20 336.00 389.18
  Q 320.89 388.88 315.77 388.95"
/>
<path stroke="#545455" vector-effect="non-scaling-stroke" d="
  M 315.77 388.95
  L 317.48 387.72
  Q 317.63 387.61 317.48 387.49
  L 317.27 387.33"
/>
<path stroke="#68696b" vector-effect="non-scaling-stroke" d="
  M 104.47 394.58
  L 104.05 394.65
  Q 103.50 394.76 103.95 395.09
  L 104.23 395.30"
/>
<path stroke="#c3c5c6" vector-effect="non-scaling-stroke" d="
  M 325.36 24.63
  L 325.35 123.89
  Q 325.34 124.20 325.49 124.48
  Q 325.60 124.69 325.60 124.93
  Q 325.68 162.17 325.58 199.42
  Q 325.57 201.29 326.05 203.02
  Q 326.45 204.51 327.13 206.51
  Q 328.89 211.73 328.28 217.69
  Q 328.25 217.99 327.99 218.12
  Q 327.77 218.23 327.81 218.48
  Q 328.07 220.09 327.77 221.25
  Q 327.15 223.71 327.14 223.79
  Q 326.22 230.30 326.19 235.12
  Q 326.05 257.67 326.13 279.94
  Q 326.13 280.39 326.27 280.81
  Q 326.36 281.08 326.36 281.37
  Q 326.38 311.63 326.37 342.18
  Q 326.37 342.37 326.47 342.52
  Q 326.65 342.81 326.65 343.14
  Q 326.44 363.93 326.95 384.01
  Q 326.97 384.63 326.54 385.08
  Q 325.91 385.75 326.02 386.93"
/>
<path stroke="#9a9a9c" vector-effect="non-scaling-stroke" d="
  M 326.02 386.93
  L 324.72 387.01"
/>
<path stroke="#7e8082" vector-effect="non-scaling-stroke" d="
  M 312.45 394.37
  Q 312.46 394.53 312.74 394.62
  Q 313.04 394.70 312.73 394.74
  L 307.20 395.35"
/>
<path stroke="#aeb0b2" vector-effect="non-scaling-stroke" d="
  M 337.65 24.78
  L 337.65 186.37
  Q 337.65 186.57 337.52 186.73
  Q 337.43 186.84 337.43 187.00
  Q 337.38 285.64 337.38 384.27
  Q 337.38 384.43 337.55 384.43
  L 337.55 384.43
  Q 337.72 384.43 337.72 384.27
  Q 338.04 204.54 338.20 24.80"
/>
<path stroke="#bec0c2" vector-effect="non-scaling-stroke" d="
  M 342.16 24.96
  Q 342.12 40.19 342.09 55.25
  Q 341.79 210.29 342.01 299.41
  Q 342.09 334.73 342.32 366.85
  Q 342.38 376.12 342.24 385.49
  Q 342.23 386.00 342.65 386.28
  L 342.98 386.51"
/>
<path stroke="#949698" vector-effect="non-scaling-stroke" d="
  M 342.47 386.96
  L 337.96 386.87"
/>
<path stroke="#bec0c2" vector-effect="non-scaling-stroke" d="
  M 337.43 24.79
  L 337.44 124.11
  Q 337.44 124.34 337.26 124.48
  Q 337.11 124.59 337.11 124.76
  Q 337.19 202.33 337.19 279.91
  Q 337.19 279.99 337.16 280.07
  Q 337.11 280.19 337.02 280.30
  Q 336.88 280.45 336.88 280.65
  L 336.88 383.74
  Q 336.88 384.22 337.19 384.58
  Q 338.04 385.58 337.96 386.87"
/>
<path stroke="#aaabac" vector-effect="non-scaling-stroke" d="
  M 337.96 386.87
  L 326.02 386.93"
/>
<path stroke="#202020" vector-effect="non-scaling-stroke" d="
  M 75.51 56.55
  Q 74.94 58.32 77.25 58.53"
/>
<path stroke="#191919" vector-effect="non-scaling-stroke" d="
  M 77.25 58.53
  L 162.98 58.31
  A 4.69 4.68 89.9 0 0 167.65 53.61
  Q 167.60 37.46 167.34 18.25
  Q 167.31 16.05 166.82 13.62
  C 166.51 12.10 164.68 11.06 163.25 11.04
  Q 159.95 10.99 156.73 10.75
  Q 153.24 10.49 150.24 10.44
  Q 121.38 9.97 109.38 10.25
  Q 94.21 10.62 78.37 10.73
  Q 75.99 10.75 75.81 13.12
  Q 75.59 15.96 75.50 19.25
  Q 74.97 37.89 75.51 56.55"
/>
<path stroke="#121212" vector-effect="non-scaling-stroke" d="
  M 77.25 58.53
  Q 76.14 57.60 75.51 56.55"
/>
<path stroke="#5f6061" vector-effect="non-scaling-stroke" d="
  M 257.23 36.46
  Q 258.71 38.01 260.42 38.85
  Q 261.42 39.34 260.83 38.40
  Q 260.15 37.29 258.88 36.59
  A 0.71 0.70 -50.2 0 1 258.78 35.43
  L 261.07 33.55
  A 0.24 0.24 0.0 0 0 261.14 33.27
  L 261.04 33.00
  Q 260.94 32.78 260.72 32.87
  Q 258.92 33.61 257.72 35.12
  A 1.31 1.31 0.0 0 1 255.64 35.09
  Q 254.66 33.78 253.26 33.12
  Q 251.61 32.34 252.74 33.78
  Q 253.50 34.74 254.60 35.41
  A 0.56 0.56 0.0 0 1 254.68 36.31
  L 252.50 38.19
  A 0.37 0.36 -37.8 0 0 252.43 38.68
  L 252.60 38.93
  Q 252.70 39.07 252.85 38.99
  Q 254.67 37.98 255.93 36.50
  Q 256.56 35.75 257.23 36.46"
/>
<path stroke="#848586" vector-effect="non-scaling-stroke" d="
  M 235.94 38.64
  Q 237.51 39.01 238.37 38.63
  Q 238.87 38.40 238.86 37.86
  Q 238.83 36.86 237.81 36.64
  Q 237.42 36.56 237.43 36.96
  Q 237.44 37.20 237.60 37.29
  Q 238.01 37.53 237.78 37.94
  Q 237.43 38.59 236.51 38.32
  Q 236.02 38.17 236.17 37.45"
/>
<path stroke="#6d6e6f" vector-effect="non-scaling-stroke" d="
  M 236.17 37.45
  Q 236.31 37.23 236.36 37.05
  Q 236.47 36.55 235.98 36.70
  L 233.27 37.54
  A 0.08 0.07 -8.7 0 1 233.17 37.47
  Q 233.18 37.24 233.03 37.08
  A 0.46 0.45 50.7 0 0 232.47 37.02
  Q 232.07 37.29 231.88 37.69
  A 1.77 1.73 -50.0 0 1 228.86 37.99
  Q 228.23 37.08 228.26 35.90
  Q 228.27 35.31 228.86 35.32
  Q 231.44 35.34 234.24 35.13
  Q 235.01 35.07 234.28 34.85
  Q 234.13 34.80 233.99 34.69
  Q 233.93 34.64 233.88 34.59
  Q 233.78 34.47 233.82 34.33
  Q 233.89 34.04 234.12 34.22
  Q 235.52 35.27 237.50 34.58"
/>
<path stroke="#9a9a9c" vector-effect="non-scaling-stroke" d="
  M 237.50 34.58
  L 240.12 35.44"
/>
<path stroke="#6d6e6f" vector-effect="non-scaling-stroke" d="
  M 240.12 35.44
  L 242.33 35.42"
/>
<path stroke="#aeb0b2" vector-effect="non-scaling-stroke" d="
  M 242.33 35.42
  Q 242.40 35.61 242.73 35.39"
/>
<path stroke="#6d6e6f" vector-effect="non-scaling-stroke" d="
  M 242.73 35.39
  L 245.14 35.33
  Q 245.73 35.31 245.49 34.77
  Q 244.96 33.56 243.58 33.55
  Q 237.83 33.48 232.95 33.82
  A 1.62 1.61 59.5 0 1 231.99 33.57
  Q 231.52 33.27 231.01 33.11
  Q 230.28 32.87 230.68 33.53
  L 230.90 33.89
  Q 231.21 34.39 230.73 34.73
  Q 230.27 35.05 229.70 34.94
  Q 229.02 34.82 229.13 34.14
  L 229.24 33.42
  Q 229.29 33.05 228.92 33.08
  L 228.30 33.14
  Q 227.79 33.18 227.79 33.70
  L 227.79 37.23
  Q 227.79 39.15 229.71 39.03
  L 235.94 38.64"
/>
<path stroke="#68696b" vector-effect="non-scaling-stroke" d="
  M 242.73 35.39
  Q 243.01 35.24 243.17 35.05
  Q 243.55 34.60 243.14 34.18
  Q 242.44 33.47 241.58 34.36
  Q 240.98 34.97 242.33 35.42"
/>
<path stroke="#545455" vector-effect="non-scaling-stroke" d="
  M 240.12 35.44
  Q 240.97 34.06 237.50 34.58"
/>
<path stroke="#3e3e3f" vector-effect="non-scaling-stroke" d="
  M 236.17 37.45
  Q 235.76 37.61 235.94 38.64"
/>
<path stroke="#5f6061" vector-effect="non-scaling-stroke" d="
  M 274.40 34.73
  A 1.04 1.03 -88.0 0 1 275.53 33.67
  L 277.25 33.82
  A 0.25 0.24 -82.3 0 0 277.51 33.61
  Q 277.56 33.31 277.35 33.24
  Q 275.72 32.72 274.05 33.40
  A 0.95 0.95 0.0 0 0 273.46 34.28
  L 273.49 37.90
  A 0.92 0.92 0.0 0 0 274.18 38.79
  Q 275.68 39.18 277.00 38.83
  Q 277.76 38.63 276.98 38.54
  Q 276.23 38.46 275.50 38.56
  Q 274.50 38.69 274.47 37.68
  L 274.40 34.73"
/>
<path stroke="#5f6061" vector-effect="non-scaling-stroke" d="
  M 265.84 35.01
  L 265.79 38.21
  Q 265.78 38.66 266.23 38.68
  L 266.57 38.69
  Q 267.06 38.71 267.05 38.22
  L 266.96 33.90
  Q 266.95 33.22 266.26 33.23
  Q 265.40 33.26 264.54 33.62
  Q 263.62 34.01 264.62 34.10
  Q 264.86 34.12 265.12 34.16
  Q 265.85 34.28 265.84 35.01"
/>
<path stroke="#848586" vector-effect="non-scaling-stroke" d="
  M 292.04 34.89
  Q 291.07 34.19 289.97 34.49
  Q 289.15 34.70 288.80 33.93
  Q 288.57 33.41 288.04 33.30
  Q 287.23 33.12 287.23 33.95
  L 287.23 38.00
  Q 287.23 38.56 287.74 38.78
  Q 290.15 39.83 292.08 38.38
  Q 292.34 38.19 292.60 38.39
  Q 294.61 39.97 297.03 38.61
  Q 297.55 38.32 298.01 38.69
  Q 298.20 38.84 298.43 38.86
  Q 299.05 38.89 299.03 38.27
  L 298.95 36.25
  A 0.89 0.88 -3.8 0 1 299.75 35.34
  L 300.23 35.29
  Q 300.98 35.22 301.04 35.97
  Q 301.12 37.02 301.02 38.20
  Q 300.98 38.64 301.38 38.81
  Q 302.37 39.22 302.53 38.17
  Q 302.75 36.74 302.42 35.24
  Q 302.32 34.77 301.87 34.62
  Q 299.63 33.90 297.76 34.83
  Q 297.49 34.97 297.21 34.84
  Q 294.86 33.76 292.81 34.93
  Q 292.42 35.16 292.04 34.89"
/>
<path stroke="#6d6e6f" vector-effect="non-scaling-stroke" d="
  M 247.09 34.86
  Q 246.89 34.99 246.84 35.23
  Q 246.74 35.79 247.27 35.59
  Q 247.49 35.50 247.70 35.40
  Q 247.98 35.25 248.02 34.94
  Q 248.07 34.44 247.99 33.92
  Q 247.89 33.34 247.49 33.78
  Q 247.24 34.06 247.27 34.48
  A 0.43 0.42 -20.1 0 1 247.09 34.86"
/>
<path stroke="#9a9a9c" vector-effect="non-scaling-stroke" d="
  M 282.68 38.43
  L 283.47 38.42"
/>
<path stroke="#6d6e6f" vector-effect="non-scaling-stroke" d="
  M 283.47 38.42
  Q 284.15 38.72 284.53 38.64
  A 0.54 0.53 -17.1 0 0 284.91 37.93
  Q 284.13 35.91 285.92 35.48
  Q 286.55 35.32 286.07 34.89
  Q 285.25 34.17 283.95 34.77"
/>
<path stroke="#9a9a9c" vector-effect="non-scaling-stroke" d="
  M 283.95 34.77
  L 282.46 34.85"
/>
<path stroke="#6d6e6f" vector-effect="non-scaling-stroke" d="
  M 282.46 34.85
  Q 281.73 34.51 281.33 34.62
  Q 280.61 34.81 281.32 35.01
  Q 281.74 35.13 281.68 35.54
  C 281.54 36.66 281.89 37.30 281.63 38.35
  Q 281.48 38.94 282.08 38.83
  Q 282.39 38.77 282.68 38.43"
/>
<path stroke="#545455" vector-effect="non-scaling-stroke" d="
  M 282.46 34.85
  L 282.68 38.43"
/>
<path stroke="#545455" vector-effect="non-scaling-stroke" d="
  M 283.47 38.42
  L 283.95 34.77"
/>
<path stroke="#848586" vector-effect="non-scaling-stroke" d="
  M 271.1712 36.3510
  A 0.80 0.64 22.1 0 0 270.6708 35.4570
  A 0.80 0.64 22.1 0 0 269.6888 35.7490
  A 0.80 0.64 22.1 0 0 270.1892 36.6430
  A 0.80 0.64 22.1 0 0 271.1712 36.3510"
/>
<path stroke="#5f6061" vector-effect="non-scaling-stroke" d="
  M 278.72 38.11
  Q 279.67 39.07 280.77 38.98
  Q 281.80 38.89 280.78 38.76
  Q 280.17 38.69 279.86 38.15
  A 1.31 1.30 -44.8 0 1 279.87 36.83
  Q 279.95 36.68 280.10 36.61
  Q 280.73 36.30 280.03 36.42
  Q 279.36 36.55 278.83 36.92
  Q 278.06 37.45 278.72 38.11"
/>
<path stroke="#7e8082" vector-effect="non-scaling-stroke" d="
  M 303.62 208.54
  Q 305.08 209.63 307.10 208.95
  A 0.76 0.76 0.0 0 1 307.74 209.03
  Q 309.28 210.03 310.52 208.64
  A 1.07 1.06 62.4 0 0 310.78 207.80
  L 310.72 207.28
  Q 310.63 206.56 310.16 207.12
  Q 309.27 208.19 308.33 207.39
  C 307.35 206.57 305.85 206.24 304.60 206.42
  C 302.24 206.75 299.82 206.46 297.47 206.75
  Q 296.88 206.83 296.42 206.44
  Q 295.77 205.90 294.97 205.63
  Q 294.31 205.40 293.91 205.98
  Q 292.86 207.51 293.55 208.76
  Q 293.77 209.16 294.23 209.16
  Q 298.88 209.17 302.79 208.35
  Q 303.25 208.26 303.62 208.54"
/>
<path stroke="#7e8082" vector-effect="non-scaling-stroke" d="
  M 314.86 208.05
  A 0.93 0.93 0.0 0 1 313.30 207.32
  Q 313.33 206.66 312.76 206.36
  A 0.41 0.41 0.0 0 0 312.16 206.69
  Q 312.09 207.67 312.34 208.49
  A 0.81 0.80 79.6 0 0 313.14 209.05
  L 320.49 208.71
  A 0.69 0.69 0.0 0 0 321.07 208.33
  Q 321.42 207.62 320.74 207.05
  A 1.05 1.02 -19.2 0 0 320.31 206.85
  Q 318.38 206.45 316.01 206.73
  Q 315.45 206.80 315.29 207.34
  Q 315.17 207.77 314.86 208.05"
/>
<path stroke="#949596" vector-effect="non-scaling-stroke" d="
  M 289.5755 38.4466
  A 1.62 1.08 93.7 0 0 290.7577 36.8997
  A 1.62 1.08 93.7 0 0 289.7845 35.2134
  A 1.62 1.08 93.7 0 0 288.6023 36.7603
  A 1.62 1.08 93.7 0 0 289.5755 38.4466"
/>
<path stroke="#949596" vector-effect="non-scaling-stroke" d="
  M 294.8699 38.3597
  A 1.56 1.01 88.9 0 0 295.8498 36.7806
  A 1.56 1.01 88.9 0 0 294.8101 35.2403
  A 1.56 1.01 88.9 0 0 293.8302 36.8194
  A 1.56 1.01 88.9 0 0 294.8699 38.3597"
/>
<path stroke="#191919" vector-effect="non-scaling-stroke" d="
  M 96.24 79.82
  C 95.67 78.02 92.95 76.92 91.52 78.14
  Q 90.09 79.34 88.78 81.21
  Q 88.43 81.72 88.68 82.28
  C 91.01 87.44 98.02 85.45 96.24 79.82"
/>
<path stroke="#68696b" vector-effect="non-scaling-stroke" d="
  M 314.0757 135.2367
  A 2.75 1.17 92.8 0 0 315.3786 132.5472
  A 2.75 1.17 92.8 0 0 314.3443 129.7433
  A 2.75 1.17 92.8 0 0 313.0414 132.4328
  A 2.75 1.17 92.8 0 0 314.0757 135.2367"
/>
<path stroke="#191919" vector-effect="non-scaling-stroke" d="
  M 70.69 362.49
  Q 71.82 363.27 73.08 362.90
  A 1.22 1.08 38.1 0 1 73.58 362.87
  Q 74.37 362.98 74.74 362.27
  Q 75.35 361.09 75.96 359.88
  C 77.02 357.77 74.80 355.60 73.05 354.79
  Q 72.51 354.54 71.97 354.78
  C 68.50 356.29 66.63 359.67 70.69 362.49"
/>
<path stroke="#191919" vector-effect="non-scaling-stroke" d="
  M 91.64 355.02
  L 88.92 357.72
  A 1.54 1.54 0.0 0 0 88.91 359.90
  L 90.60 361.61
  A 3.44 3.38 45.2 0 0 95.42 361.66
  L 95.54 361.55
  A 3.44 3.38 45.2 0 0 95.51 356.73
  L 93.82 355.03
  A 1.54 1.54 0.0 0 0 91.64 355.02"
/>
<path stroke="#121212" vector-effect="non-scaling-stroke" d="
  M 162.19 92.27
  Q 161.77 93.87 161.45 92.25
  Q 160.99 89.96 161.17 87.93
  Q 161.27 86.77 160.10 86.77
  L 157.05 86.79
  A 1.09 1.09 0.0 0 0 155.98 88.05
  C 156.55 91.53 155.92 94.77 157.02 98.27
  Q 158.21 102.07 159.49 105.42
  A 0.88 0.87 -10.8 0 1 158.68 106.61
  Q 140.68 106.71 121.93 107.03
  C 107.25 107.29 92.35 106.82 77.62 106.42
  C 74.24 106.33 70.93 106.73 67.48 106.70
  A 0.39 0.38 -5.0 0 0 67.10 107.15
  L 67.17 107.58
  A 1.01 1.00 -4.5 0 0 68.15 108.41
  L 87.49 108.65
  Q 88.11 108.66 88.69 108.86
  Q 89.32 109.09 89.99 109.11
  Q 98.20 109.37 103.90 109.26
  Q 133.80 108.67 160.20 108.55
  A 0.86 0.86 0.0 0 1 161.01 109.13
  Q 162.61 113.64 162.12 118.62
  A 1.07 1.07 0.0 0 0 163.19 119.79
  Q 183.87 119.73 202.90 119.81
  Q 205.38 119.82 208.28 119.46
  A 0.79 0.78 86.7 0 0 208.97 118.68
  L 208.96 87.81
  Q 208.96 87.01 208.16 86.92
  Q 201.37 86.20 194.04 86.86
  Q 192.55 86.99 193.64 88.02
  Q 194.57 88.89 195.51 89.74
  C 197.74 91.75 198.65 94.65 198.61 97.61
  Q 198.50 106.20 191.34 109.45
  C 182.25 113.59 173.93 107.80 172.28 98.55
  Q 171.71 95.39 173.17 92.78
  Q 174.70 90.03 177.50 88.16
  Q 179.02 87.15 177.20 87.00
  Q 170.41 86.48 163.04 86.89
  A 0.98 0.98 0.0 0 0 162.13 88.06
  Q 162.63 90.58 162.19 92.27"
/>
<path stroke="#121212" vector-effect="non-scaling-stroke" d="
  M 279.58 110.19
  Q 281.21 110.55 282.92 110.35
  Q 284.50 110.16 286.11 110.18
  Q 288.73 110.22 291.30 110.32
  Q 291.57 110.33 291.67 110.08
  Q 291.76 109.86 292.00 109.86
  Q 296.41 109.89 299.00 109.64
  Q 299.12 109.63 299.12 109.51
  Q 299.13 109.46 299.15 109.42
  Q 299.24 109.21 299.47 109.20
  Q 301.89 109.10 304.11 108.59
  Q 304.54 108.49 304.54 108.05
  L 304.54 107.48
  Q 304.54 107.19 304.25 107.18
  Q 299.56 107.02 294.45 106.82
  Q 285.33 106.45 271.75 106.68
  Q 269.53 106.72 267.00 106.71
  C 255.28 106.66 243.66 107.19 231.69 106.76
  Q 222.12 106.41 213.20 106.66
  A 0.64 0.63 4.6 0 0 212.60 107.16
  Q 212.50 107.63 212.91 107.86
  Q 214.00 108.48 215.12 108.49
  Q 236.44 108.79 257.78 108.75
  Q 263.50 108.74 268.33 109.24
  Q 273.38 109.77 279.04 110.32
  Q 279.13 110.33 279.19 110.28
  Q 279.27 110.23 279.35 110.20
  Q 279.46 110.16 279.58 110.19"
/>
<path stroke="#121212" vector-effect="non-scaling-stroke" d="
  M 186.3553 150.6685
  A 0.90 0.90 0.0 0 0 185.4537 149.7701
  L 185.4137 149.7701
  A 0.90 0.90 0.0 0 0 184.5153 150.6717
  L 184.7647 293.5915
  A 0.90 0.90 0.0 0 0 185.6663 294.4899
  L 185.7063 294.4899
  A 0.90 0.90 0.0 0 0 186.6047 293.5883
  L 186.3553 150.6685"
/>
<path stroke="#121212" vector-effect="non-scaling-stroke" d="
  M 77.75 301.98
  Q 77.76 302.77 78.05 303.56
  Q 78.22 304.07 77.99 304.54
  L 76.86 306.80
  A 1.27 1.27 0.0 0 0 78.00 308.63
  C 82.31 308.64 86.62 308.95 90.98 308.96
  Q 135.86 309.13 178.26 309.36
  C 191.01 309.43 203.48 309.11 215.69 309.51
  Q 227.78 309.90 232.69 309.64
  Q 243.16 309.07 252.14 309.30
  C 260.80 309.52 269.10 309.30 277.55 309.10
  Q 279.47 309.05 281.71 308.75
  A 1.68 1.67 -4.7 0 0 283.17 307.04
  L 282.93 299.08
  A 2.85 2.84 -85.1 0 0 280.66 296.38
  C 276.25 295.49 272.33 295.69 267.90 295.68
  Q 236.25 295.60 201.25 295.76
  Q 173.21 295.89 149.75 295.87
  Q 139.37 295.86 129.76 295.66
  Q 104.37 295.12 79.36 296.05
  A 2.09 2.08 -6.7 0 0 77.39 298.54
  Q 77.72 300.22 77.75 301.98"
/>
</g>
<path fill="#545556" d="
  M 170.09 5.71
  Q 169.81 5.91 169.80 5.98
  L 74.43 5.80
  A 3.37 3.36 1.1 0 0 71.06 9.04
  L 70.46 24.25
  Q 70.31 23.85 70.18 23.53
  Q 70.08 23.29 69.64 23.48
  Q 69.55 17.54 69.76 11.60
  Q 69.86 8.49 71.00 6.96
  Q 72.73 4.64 75.75 4.65
  Q 121.38 4.78 167.00 4.67
  Q 168.43 4.67 170.09 5.71
  Z"
/>
<path fill="#272727" d="
  M 169.80 5.98
  Q 172.34 7.60 172.33 9.50
  Q 172.25 34.02 172.26 58.50
  C 172.27 62.16 169.12 63.89 165.82 63.89
  Q 119.90 63.81 76.40 63.84
  Q 70.39 63.84 70.24 59.00
  Q 69.98 50.89 70.46 24.25
  L 71.06 9.04
  A 3.37 3.36 1.1 0 1 74.43 5.80
  L 169.80 5.98
  Z
  M 75.51 56.55
  Q 74.94 58.32 77.25 58.53
  L 162.98 58.31
  A 4.69 4.68 89.9 0 0 167.65 53.61
  Q 167.60 37.46 167.34 18.25
  Q 167.31 16.05 166.82 13.62
  C 166.51 12.10 164.68 11.06 163.25 11.04
  Q 159.95 10.99 156.73 10.75
  Q 153.24 10.49 150.24 10.44
  Q 121.38 9.97 109.38 10.25
  Q 94.21 10.62 78.37 10.73
  Q 75.99 10.75 75.81 13.12
  Q 75.59 15.96 75.50 19.25
  Q 74.97 37.89 75.51 56.55
  Z"
/>
<path fill="#a8abae" d="
  M 170.09 5.71
  C 173.41 7.67 173.28 12.30 172.99 15.67
  Q 172.64 19.71 172.74 24.06
  Q 172.75 24.57 173.26 24.58
  Q 173.47 24.58 173.77 24.51
  Q 173.77 50.81 173.51 57.75
  Q 173.47 58.88 172.44 62.10
  Q 170.25 64.82 167.00 64.86
  Q 121.62 65.35 75.75 64.89
  Q 71.92 64.85 70.24 62.28
  Q 70.08 62.04 69.84 62.21
  L 69.61 62.37
  A 0.32 0.31 -32.6 0 0 69.51 62.79
  Q 71.88 66.87 76.45 67.15
  L 77.12 73.80
  Q 77.17 74.32 77.70 74.33
  Q 83.10 74.41 88.49 74.22
  Q 91.11 74.12 90.48 75.30
  L 57.77 75.48
  L 55.44 75.57
  A 0.51 0.51 0.0 0 0 54.95 76.08
  L 54.93 364.80
  Q 54.27 366.13 54.28 367.75
  Q 54.34 375.93 54.23 384.12
  C 54.22 384.94 54.69 385.74 54.49 386.54
  Q 54.36 387.08 53.80 387.07
  L 49.16 386.95
  Q 49.31 385.76 48.77 385.06
  Q 48.47 384.67 48.45 384.17
  C 48.19 377.19 48.62 368.78 48.62 363.25
  Q 48.64 324.88 48.67 286.50
  Q 48.67 286.25 48.75 286.02
  Q 48.88 285.66 48.88 285.27
  Q 48.88 269.05 48.89 252.83
  Q 48.89 252.72 48.94 252.62
  Q 48.98 252.55 49.04 252.47
  Q 49.11 252.38 49.11 252.22
  Q 49.16 196.07 49.10 140.08
  C 49.10 139.31 48.80 138.75 48.81 138.00
  Q 49.10 123.67 48.51 107.74
  Q 47.88 90.61 47.49 73.51
  Q 47.13 57.23 49.18 28.75
  Q 49.42 25.45 49.73 24.61
  Q 59.34 24.49 69.00 24.65
  Q 70.08 24.67 69.64 23.48
  Q 70.08 23.29 70.18 23.53
  Q 70.31 23.85 70.46 24.25
  Q 69.98 50.89 70.24 59.00
  Q 70.39 63.84 76.40 63.84
  Q 119.90 63.81 165.82 63.89
  C 169.12 63.89 172.27 62.16 172.26 58.50
  Q 172.25 34.02 172.33 9.50
  Q 172.34 7.60 169.80 5.98
  Q 169.81 5.91 170.09 5.71
  Z"
/>
<path fill="#0b0b0b" d="
  M 77.25 58.53
  Q 76.14 57.60 75.51 56.55
  Q 74.97 37.89 75.50 19.25
  Q 75.59 15.96 75.81 13.12
  Q 75.99 10.75 78.37 10.73
  Q 94.21 10.62 109.38 10.25
  Q 121.38 9.97 150.24 10.44
  Q 153.24 10.49 156.73 10.75
  Q 159.95 10.99 163.25 11.04
  C 164.68 11.06 166.51 12.10 166.82 13.62
  Q 167.31 16.05 167.34 18.25
  Q 167.60 37.46 167.65 53.61
  A 4.69 4.68 89.9 0 1 162.98 58.31
  L 77.25 58.53
  Z"
/>
<path fill="#a8abae" d="
  M 197.69 19.90
  Q 187.34 19.91 177.00 20.06
  Q 176.11 20.07 175.11 19.36
  Q 174.67 19.05 174.40 19.51
  L 174.13 19.98
  Q 174.06 19.91 173.76 19.96
  Q 173.59 19.17 173.76 18.28
  Q 173.86 17.76 174.39 17.74
  Q 185.73 17.43 196.98 17.72
  Q 197.49 17.74 197.66 18.22
  Q 197.92 18.99 197.69 19.90
  Z"
/>
<path fill="#545556" d="
  M 197.69 19.90
  L 197.74 24.55
  L 187.01 24.62
  L 181.99 24.59
  Q 178.13 24.99 175.08 23.17
  A 1.13 1.11 -79.8 0 1 174.56 22.41
  L 174.13 19.98
  L 174.40 19.51
  Q 174.67 19.05 175.11 19.36
  Q 176.11 20.07 177.00 20.06
  Q 187.34 19.91 197.69 19.90
  Z"
/>
<path fill="#808082" d="
  M 173.76 19.96
  Q 174.06 19.91 174.13 19.98
  L 174.56 22.41
  A 1.13 1.11 -79.8 0 0 175.08 23.17
  Q 178.13 24.99 181.99 24.59
  Q 180.37 24.42 179.29 24.99
  Q 178.80 25.24 179.18 25.65
  Q 180.60 27.17 180.76 29.51
  Q 181.18 35.76 181.93 42.02
  Q 182.07 43.27 182.25 44.47
  Q 184.25 58.51 185.29 71.01
  Q 185.38 72.15 185.38 73.39
  A 0.99 0.99 0.0 0 1 184.36 74.37
  Q 171.09 73.93 157.80 74.97
  L 145.74 75.24
  Q 145.02 73.87 148.64 73.90
  A 1.16 1.15 -67.2 0 0 149.49 73.55
  Q 151.17 71.80 153.42 70.82
  Q 153.88 70.62 154.18 70.21
  Q 156.23 67.44 159.27 67.11
  Q 162.80 67.30 166.26 67.07
  Q 172.01 66.69 172.44 62.10
  Q 173.47 58.88 173.51 57.75
  Q 173.77 50.81 173.77 24.51
  L 173.76 19.96
  Z"
/>
<path fill="#b3b4b6" d="
  M 197.74 24.55
  L 315.98 24.56
  L 315.94 74.64
  A 0.67 0.67 0.0 0 1 315.28 75.31
  L 307.04 75.44
  L 186.03 75.36
  Q 185.44 74.74 186.72 74.43
  Q 187.25 74.30 187.80 74.32
  Q 199.26 74.58 211.73 74.01
  Q 212.89 73.96 213.05 72.82
  Q 213.24 71.50 212.68 69.96
  Q 212.53 69.56 212.74 69.18
  Q 213.16 68.41 212.38 67.90
  Q 212.08 67.70 212.11 67.34
  Q 212.12 67.20 212.15 67.07
  Q 212.25 66.54 212.02 66.06
  Q 211.31 64.57 210.92 62.89
  C 210.62 61.60 210.01 60.78 209.37 59.67
  Q 209.12 59.24 209.11 58.74
  Q 209.11 58.20 208.62 57.95
  Q 208.15 57.70 208.04 57.18
  Q 207.86 56.35 207.42 55.61
  Q 204.89 51.35 202.44 47.15
  Q 202.16 46.66 201.78 46.21
  C 201.16 45.49 201.04 44.68 200.52 43.87
  C 199.76 42.68 198.70 41.91 198.04 40.56
  Q 197.04 38.48 196.07 36.59
  Q 195.52 35.52 194.70 34.71
  Q 193.68 33.69 193.16 32.40
  C 192.41 30.51 190.90 29.17 190.06 27.31
  A 2.53 2.52 81.5 0 0 188.08 25.84
  Q 183.76 25.26 187.01 24.62
  L 197.74 24.55
  Z
  M 257.23 36.46
  Q 258.71 38.01 260.42 38.85
  Q 261.42 39.34 260.83 38.40
  Q 260.15 37.29 258.88 36.59
  A 0.71 0.70 -50.2 0 1 258.78 35.43
  L 261.07 33.55
  A 0.24 0.24 0.0 0 0 261.14 33.27
  L 261.04 33.00
  Q 260.94 32.78 260.72 32.87
  Q 258.92 33.61 257.72 35.12
  A 1.31 1.31 0.0 0 1 255.64 35.09
  Q 254.66 33.78 253.26 33.12
  Q 251.61 32.34 252.74 33.78
  Q 253.50 34.74 254.60 35.41
  A 0.56 0.56 0.0 0 1 254.68 36.31
  L 252.50 38.19
  A 0.37 0.36 -37.8 0 0 252.43 38.68
  L 252.60 38.93
  Q 252.70 39.07 252.85 38.99
  Q 254.67 37.98 255.93 36.50
  Q 256.56 35.75 257.23 36.46
  Z
  M 235.94 38.64
  Q 237.51 39.01 238.37 38.63
  Q 238.87 38.40 238.86 37.86
  Q 238.83 36.86 237.81 36.64
  Q 237.42 36.56 237.43 36.96
  Q 237.44 37.20 237.60 37.29
  Q 238.01 37.53 237.78 37.94
  Q 237.43 38.59 236.51 38.32
  Q 236.02 38.17 236.17 37.45
  Q 236.31 37.23 236.36 37.05
  Q 236.47 36.55 235.98 36.70
  L 233.27 37.54
  A 0.08 0.07 -8.7 0 1 233.17 37.47
  Q 233.18 37.24 233.03 37.08
  A 0.46 0.45 50.7 0 0 232.47 37.02
  Q 232.07 37.29 231.88 37.69
  A 1.77 1.73 -50.0 0 1 228.86 37.99
  Q 228.23 37.08 228.26 35.90
  Q 228.27 35.31 228.86 35.32
  Q 231.44 35.34 234.24 35.13
  Q 235.01 35.07 234.28 34.85
  Q 234.13 34.80 233.99 34.69
  Q 233.93 34.64 233.88 34.59
  Q 233.78 34.47 233.82 34.33
  Q 233.89 34.04 234.12 34.22
  Q 235.52 35.27 237.50 34.58
  L 240.12 35.44
  L 242.33 35.42
  Q 242.40 35.61 242.73 35.39
  L 245.14 35.33
  Q 245.73 35.31 245.49 34.77
  Q 244.96 33.56 243.58 33.55
  Q 237.83 33.48 232.95 33.82
  A 1.62 1.61 59.5 0 1 231.99 33.57
  Q 231.52 33.27 231.01 33.11
  Q 230.28 32.87 230.68 33.53
  L 230.90 33.89
  Q 231.21 34.39 230.73 34.73
  Q 230.27 35.05 229.70 34.94
  Q 229.02 34.82 229.13 34.14
  L 229.24 33.42
  Q 229.29 33.05 228.92 33.08
  L 228.30 33.14
  Q 227.79 33.18 227.79 33.70
  L 227.79 37.23
  Q 227.79 39.15 229.71 39.03
  L 235.94 38.64
  Z
  M 274.40 34.73
  A 1.04 1.03 -88.0 0 1 275.53 33.67
  L 277.25 33.82
  A 0.25 0.24 -82.3 0 0 277.51 33.61
  Q 277.56 33.31 277.35 33.24
  Q 275.72 32.72 274.05 33.40
  A 0.95 0.95 0.0 0 0 273.46 34.28
  L 273.49 37.90
  A 0.92 0.92 0.0 0 0 274.18 38.79
  Q 275.68 39.18 277.00 38.83
  Q 277.76 38.63 276.98 38.54
  Q 276.23 38.46 275.50 38.56
  Q 274.50 38.69 274.47 37.68
  L 274.40 34.73
  Z
  M 265.84 35.01
  L 265.79 38.21
  Q 265.78 38.66 266.23 38.68
  L 266.57 38.69
  Q 267.06 38.71 267.05 38.22
  L 266.96 33.90
  Q 266.95 33.22 266.26 33.23
  Q 265.40 33.26 264.54 33.62
  Q 263.62 34.01 264.62 34.10
  Q 264.86 34.12 265.12 34.16
  Q 265.85 34.28 265.84 35.01
  Z
  M 292.04 34.89
  Q 291.07 34.19 289.97 34.49
  Q 289.15 34.70 288.80 33.93
  Q 288.57 33.41 288.04 33.30
  Q 287.23 33.12 287.23 33.95
  L 287.23 38.00
  Q 287.23 38.56 287.74 38.78
  Q 290.15 39.83 292.08 38.38
  Q 292.34 38.19 292.60 38.39
  Q 294.61 39.97 297.03 38.61
  Q 297.55 38.32 298.01 38.69
  Q 298.20 38.84 298.43 38.86
  Q 299.05 38.89 299.03 38.27
  L 298.95 36.25
  A 0.89 0.88 -3.8 0 1 299.75 35.34
  L 300.23 35.29
  Q 300.98 35.22 301.04 35.97
  Q 301.12 37.02 301.02 38.20
  Q 300.98 38.64 301.38 38.81
  Q 302.37 39.22 302.53 38.17
  Q 302.75 36.74 302.42 35.24
  Q 302.32 34.77 301.87 34.62
  Q 299.63 33.90 297.76 34.83
  Q 297.49 34.97 297.21 34.84
  Q 294.86 33.76 292.81 34.93
  Q 292.42 35.16 292.04 34.89
  Z
  M 247.09 34.86
  Q 246.89 34.99 246.84 35.23
  Q 246.74 35.79 247.27 35.59
  Q 247.49 35.50 247.70 35.40
  Q 247.98 35.25 248.02 34.94
  Q 248.07 34.44 247.99 33.92
  Q 247.89 33.34 247.49 33.78
  Q 247.24 34.06 247.27 34.48
  A 0.43 0.42 -20.1 0 1 247.09 34.86
  Z
  M 282.68 38.43
  L 283.47 38.42
  Q 284.15 38.72 284.53 38.64
  A 0.54 0.53 -17.1 0 0 284.91 37.93
  Q 284.13 35.91 285.92 35.48
  Q 286.55 35.32 286.07 34.89
  Q 285.25 34.17 283.95 34.77
  L 282.46 34.85
  Q 281.73 34.51 281.33 34.62
  Q 280.61 34.81 281.32 35.01
  Q 281.74 35.13 281.68 35.54
  C 281.54 36.66 281.89 37.30 281.63 38.35
  Q 281.48 38.94 282.08 38.83
  Q 282.39 38.77 282.68 38.43
  Z
  M 271.1712 36.3510
  A 0.80 0.64 22.1 0 0 270.6708 35.4570
  A 0.80 0.64 22.1 0 0 269.6888 35.7490
  A 0.80 0.64 22.1 0 0 270.1892 36.6430
  A 0.80 0.64 22.1 0 0 271.1712 36.3510
  Z
  M 278.72 38.11
  Q 279.67 39.07 280.77 38.98
  Q 281.80 38.89 280.78 38.76
  Q 280.17 38.69 279.86 38.15
  A 1.31 1.30 -44.8 0 1 279.87 36.83
  Q 279.95 36.68 280.10 36.61
  Q 280.73 36.30 280.03 36.42
  Q 279.36 36.55 278.83 36.92
  Q 278.06 37.45 278.72 38.11
  Z"
/>
<path fill="#d3d5d6" d="
  M 46.94 24.62
  Q 45.50 52.22 45.62 79.91
  C 45.62 80.63 45.89 81.38 45.89 82.24
  C 45.89 98.75 46.50 116.93 46.41 135.25
  Q 46.41 135.47 46.49 135.68
  Q 46.63 136.04 46.63 136.43
  Q 46.63 153.64 46.63 164.61
  Q 46.63 170.09 46.63 175.21
  Q 46.63 210.89 46.63 248.26
  Q 46.63 248.64 46.50 249.01
  Q 46.39 249.31 46.39 249.62
  Q 46.39 265.41 46.34 279.61
  Q 46.34 279.97 46.23 280.31
  Q 46.15 280.55 46.15 280.80
  Q 46.14 317.84 46.10 354.80
  A 1.14 1.06 -35.9 0 1 46.02 355.21
  Q 45.91 355.48 45.91 355.76
  Q 45.85 369.69 45.89 384.95
  Q 45.89 385.18 46.13 385.18
  L 46.69 385.19
  Q 46.96 385.19 46.96 384.91
  L 47.19 280.47
  A 0.40 0.35 59.9 0 1 47.22 280.32
  Q 47.35 280.02 47.35 279.72
  Q 47.38 264.65 47.41 249.59
  Q 47.41 249.26 47.52 248.94
  Q 47.59 248.73 47.59 248.50
  Q 47.62 211.25 47.62 176.09
  Q 47.62 173.77 47.62 171.44
  Q 47.62 148.30 47.62 125.34
  C 47.62 124.69 47.41 124.28 47.41 123.56
  Q 47.29 101.60 46.74 81.85
  Q 46.44 70.93 46.81 58.75
  Q 46.88 56.36 46.93 53.75
  Q 47.19 41.55 47.94 33.13
  Q 47.99 32.60 48.10 28.87
  Q 48.16 26.73 48.65 24.63
  Q 48.69 24.59 48.97 24.60
  Q 48.46 26.59 48.44 27.50
  Q 48.16 38.80 47.56 49.24
  Q 46.27 71.24 47.35 94.63
  Q 47.82 104.82 47.94 114.66
  Q 48.13 130.42 48.14 148.63
  Q 48.14 166.31 48.13 207.36
  A 100.55 1.00 -90.0 0 0 48.12 221.58
  Q 48.13 235.91 48.13 252.51
  Q 48.13 252.90 47.99 253.27
  Q 47.90 253.53 47.90 253.79
  Q 47.88 266.92 47.84 279.66
  Q 47.84 280.00 47.73 280.31
  Q 47.66 280.52 47.66 280.75
  Q 47.63 321.12 47.63 327.53
  Q 47.63 344.94 47.37 362.34
  Q 47.19 374.60 47.65 386.93
  L 35.46 386.91
  Q 35.74 349.46 35.59 312.00
  Q 35.59 311.77 35.52 311.56
  Q 35.41 311.23 35.41 310.88
  Q 35.37 280.21 35.34 249.50
  Q 35.34 249.26 35.25 249.02
  Q 35.12 248.65 35.12 248.26
  Q 35.12 171.01 35.11 93.75
  Q 35.11 93.50 35.01 93.27
  Q 34.85 92.92 34.85 92.53
  L 34.86 24.76
  L 46.94 24.62
  Z"
/>
<path fill="#b3b4b6" d="
  M 46.94 24.62
  L 48.65 24.63
  Q 48.16 26.73 48.10 28.87
  Q 47.99 32.60 47.94 33.13
  Q 47.19 41.55 46.93 53.75
  Q 46.88 56.36 46.81 58.75
  Q 46.44 70.93 46.74 81.85
  Q 47.29 101.60 47.41 123.56
  C 47.41 124.28 47.62 124.69 47.62 125.34
  Q 47.62 148.30 47.62 171.44
  Q 47.62 173.77 47.62 176.09
  Q 47.62 211.25 47.59 248.50
  Q 47.59 248.73 47.52 248.94
  Q 47.41 249.26 47.41 249.59
  Q 47.38 264.65 47.35 279.72
  Q 47.35 280.02 47.22 280.32
  A 0.40 0.35 59.9 0 0 47.19 280.47
  L 46.96 384.91
  Q 46.96 385.19 46.69 385.19
  L 46.13 385.18
  Q 45.89 385.18 45.89 384.95
  Q 45.85 369.69 45.91 355.76
  Q 45.91 355.48 46.02 355.21
  A 1.14 1.06 -35.9 0 0 46.10 354.80
  Q 46.14 317.84 46.15 280.80
  Q 46.15 280.55 46.23 280.31
  Q 46.34 279.97 46.34 279.61
  Q 46.39 265.41 46.39 249.62
  Q 46.39 249.31 46.50 249.01
  Q 46.63 248.64 46.63 248.26
  Q 46.63 210.89 46.63 175.21
  Q 46.63 170.09 46.63 164.61
  Q 46.63 153.64 46.63 136.43
  Q 46.63 136.04 46.49 135.68
  Q 46.41 135.47 46.41 135.25
  C 46.50 116.93 45.89 98.75 45.89 82.24
  C 45.89 81.38 45.62 80.63 45.62 79.91
  Q 45.50 52.22 46.94 24.62
  Z"
/>
<path fill="#b3b4b6" d="
  M 48.97 24.60
  L 49.73 24.61
  Q 49.42 25.45 49.18 28.75
  Q 47.13 57.23 47.49 73.51
  Q 47.88 90.61 48.51 107.74
  Q 49.10 123.67 48.81 138.00
  C 48.80 138.75 49.10 139.31 49.10 140.08
  Q 49.16 196.07 49.11 252.22
  Q 49.11 252.38 49.04 252.47
  Q 48.98 252.55 48.94 252.62
  Q 48.89 252.72 48.89 252.83
  Q 48.88 269.05 48.88 285.27
  Q 48.88 285.66 48.75 286.02
  Q 48.67 286.25 48.67 286.50
  Q 48.64 324.88 48.62 363.25
  C 48.62 368.78 48.19 377.19 48.45 384.17
  Q 48.47 384.67 48.77 385.06
  Q 49.31 385.76 49.16 386.95
  Q 48.54 387.08 47.65 386.93
  Q 47.19 374.60 47.37 362.34
  Q 47.63 344.94 47.63 327.53
  Q 47.63 321.12 47.66 280.75
  Q 47.66 280.52 47.73 280.31
  Q 47.84 280.00 47.84 279.66
  Q 47.88 266.92 47.90 253.79
  Q 47.90 253.53 47.99 253.27
  Q 48.13 252.90 48.13 252.51
  Q 48.13 235.91 48.12 221.58
  A 100.55 1.00 -90.0 0 1 48.13 207.36
  Q 48.14 166.31 48.14 148.63
  Q 48.13 130.42 47.94 114.66
  Q 47.82 104.82 47.35 94.63
  Q 46.27 71.24 47.56 49.24
  Q 48.16 38.80 48.44 27.50
  Q 48.46 26.59 48.97 24.60
  Z"
/>
<path fill="#a8abae" d="
  M 181.99 24.59
  L 187.01 24.62
  Q 183.76 25.26 188.08 25.84
  A 2.53 2.52 81.5 0 1 190.06 27.31
  C 190.90 29.17 192.41 30.51 193.16 32.40
  Q 193.68 33.69 194.70 34.71
  Q 195.52 35.52 196.07 36.59
  Q 197.04 38.48 198.04 40.56
  C 198.70 41.91 199.76 42.68 200.52 43.87
  C 201.04 44.68 201.16 45.49 201.78 46.21
  Q 202.16 46.66 202.44 47.15
  Q 204.89 51.35 207.42 55.61
  Q 207.86 56.35 208.04 57.18
  Q 208.15 57.70 208.62 57.95
  Q 209.11 58.20 209.11 58.74
  Q 209.12 59.24 209.37 59.67
  C 210.01 60.78 210.62 61.60 210.92 62.89
  Q 211.31 64.57 212.02 66.06
  Q 212.25 66.54 212.15 67.07
  Q 212.12 67.20 212.11 67.34
  Q 212.08 67.70 212.38 67.90
  Q 213.16 68.41 212.74 69.18
  Q 212.53 69.56 212.68 69.96
  Q 213.24 71.50 213.05 72.82
  Q 212.89 73.96 211.73 74.01
  Q 199.26 74.58 187.80 74.32
  Q 187.25 74.30 186.72 74.43
  Q 185.44 74.74 186.03 75.36
  L 157.80 74.97
  Q 171.09 73.93 184.36 74.37
  A 0.99 0.99 0.0 0 0 185.38 73.39
  Q 185.38 72.15 185.29 71.01
  Q 184.25 58.51 182.25 44.47
  Q 182.07 43.27 181.93 42.02
  Q 181.18 35.76 180.76 29.51
  Q 180.60 27.17 179.18 25.65
  Q 178.80 25.24 179.29 24.99
  Q 180.37 24.42 181.99 24.59
  Z"
/>
<path fill="#a8abae" d="
  M 315.98 24.56
  L 324.51 24.57
  Q 324.28 26.21 323.99 27.86
  Q 323.69 29.52 323.76 31.15
  Q 324.05 38.20 324.18 45.44
  Q 324.38 56.32 324.38 68.87
  Q 324.37 131.08 324.26 197.00
  Q 324.25 201.50 326.09 207.08
  Q 327.34 210.90 327.05 214.23
  Q 326.61 219.17 325.38 224.25
  Q 324.63 227.32 324.37 234.75
  Q 324.14 241.01 324.27 265.00
  Q 324.56 324.33 324.81 383.65
  C 324.81 384.58 324.49 385.79 324.72 387.01
  L 317.27 387.33
  Q 316.65 387.43 316.22 387.24
  Q 316.07 386.85 316.13 386.56
  Q 316.98 386.21 316.97 385.25
  Q 316.84 376.17 317.00 367.09
  C 317.02 366.32 316.70 365.56 316.63 364.78
  Q 316.21 349.15 316.19 333.50
  Q 316.13 278.08 316.43 221.91
  L 321.15 221.83
  Q 321.71 221.82 322.00 221.34
  Q 324.33 217.40 324.76 212.83
  A 0.66 0.66 0.0 0 0 323.98 212.12
  L 317.67 213.26
  Q 311.88 213.01 307.00 213.27
  Q 306.53 213.30 306.01 212.84
  Q 305.63 212.52 305.14 212.52
  L 294.73 212.64
  Q 292.28 212.71 290.59 210.64
  Q 287.77 207.17 290.47 203.72
  C 291.32 202.64 292.17 201.69 293.69 201.66
  Q 305.21 201.47 315.86 201.71
  Q 316.40 201.73 316.49 201.19
  Q 316.60 200.58 316.48 200.09
  C 316.35 181.78 316.58 163.43 316.11 145.17
  Q 315.93 137.99 316.42 132.78
  C 316.65 130.44 315.92 127.11 316.00 124.23
  Q 316.69 99.45 316.45 76.11
  Q 316.44 75.59 315.92 75.58
  L 307.04 75.44
  L 315.28 75.31
  A 0.67 0.67 0.0 0 0 315.94 74.64
  L 315.98 24.56
  Z
  M 303.62 208.54
  Q 305.08 209.63 307.10 208.95
  A 0.76 0.76 0.0 0 1 307.74 209.03
  Q 309.28 210.03 310.52 208.64
  A 1.07 1.06 62.4 0 0 310.78 207.80
  L 310.72 207.28
  Q 310.63 206.56 310.16 207.12
  Q 309.27 208.19 308.33 207.39
  C 307.35 206.57 305.85 206.24 304.60 206.42
  C 302.24 206.75 299.82 206.46 297.47 206.75
  Q 296.88 206.83 296.42 206.44
  Q 295.77 205.90 294.97 205.63
  Q 294.31 205.40 293.91 205.98
  Q 292.86 207.51 293.55 208.76
  Q 293.77 209.16 294.23 209.16
  Q 298.88 209.17 302.79 208.35
  Q 303.25 208.26 303.62 208.54
  Z
  M 314.86 208.05
  A 0.93 0.93 0.0 0 1 313.30 207.32
  Q 313.33 206.66 312.76 206.36
  A 0.41 0.41 0.0 0 0 312.16 206.69
  Q 312.09 207.67 312.34 208.49
  A 0.81 0.80 79.6 0 0 313.14 209.05
  L 320.49 208.71
  A 0.69 0.69 0.0 0 0 321.07 208.33
  Q 321.42 207.62 320.74 207.05
  A 1.05 1.02 -19.2 0 0 320.31 206.85
  Q 318.38 206.45 316.01 206.73
  Q 315.45 206.80 315.29 207.34
  Q 315.17 207.77 314.86 208.05
  Z"
/>
<path fill="#b3b4b6" d="
  M 324.51 24.57
  L 325.36 24.63
  L 325.35 123.89
  Q 325.34 124.20 325.49 124.48
  Q 325.60 124.69 325.60 124.93
  Q 325.68 162.17 325.58 199.42
  Q 325.57 201.29 326.05 203.02
  Q 326.45 204.51 327.13 206.51
  Q 328.89 211.73 328.28 217.69
  Q 328.25 217.99 327.99 218.12
  Q 327.77 218.23 327.81 218.48
  Q 328.07 220.09 327.77 221.25
  Q 327.15 223.71 327.14 223.79
  Q 326.22 230.30 326.19 235.12
  Q 326.05 257.67 326.13 279.94
  Q 326.13 280.39 326.27 280.81
  Q 326.36 281.08 326.36 281.37
  Q 326.38 311.63 326.37 342.18
  Q 326.37 342.37 326.47 342.52
  Q 326.65 342.81 326.65 343.14
  Q 326.44 363.93 326.95 384.01
  Q 326.97 384.63 326.54 385.08
  Q 325.91 385.75 326.02 386.93
  L 324.72 387.01
  C 324.49 385.79 324.81 384.58 324.81 383.65
  Q 324.56 324.33 324.27 265.00
  Q 324.14 241.01 324.37 234.75
  Q 324.63 227.32 325.38 224.25
  Q 326.61 219.17 327.05 214.23
  Q 327.34 210.90 326.09 207.08
  Q 324.25 201.50 324.26 197.00
  Q 324.37 131.08 324.38 68.87
  Q 324.38 56.32 324.18 45.44
  Q 324.05 38.20 323.76 31.15
  Q 323.69 29.52 323.99 27.86
  Q 324.28 26.21 324.51 24.57
  Z"
/>
<path fill="#d3d5d6" d="
  M 325.36 24.63
  L 337.43 24.79
  L 337.44 124.11
  Q 337.44 124.34 337.26 124.48
  Q 337.11 124.59 337.11 124.76
  Q 337.19 202.33 337.19 279.91
  Q 337.19 279.99 337.16 280.07
  Q 337.11 280.19 337.02 280.30
  Q 336.88 280.45 336.88 280.65
  L 336.88 383.74
  Q 336.88 384.22 337.19 384.58
  Q 338.04 385.58 337.96 386.87
  L 326.02 386.93
  Q 325.91 385.75 326.54 385.08
  Q 326.97 384.63 326.95 384.01
  Q 326.44 363.93 326.65 343.14
  Q 326.65 342.81 326.47 342.52
  Q 326.37 342.37 326.37 342.18
  Q 326.38 311.63 326.36 281.37
  Q 326.36 281.08 326.27 280.81
  Q 326.13 280.39 326.13 279.94
  Q 326.05 257.67 326.19 235.12
  Q 326.22 230.30 327.14 223.79
  Q 327.15 223.71 327.77 221.25
  Q 328.07 220.09 327.81 218.48
  Q 327.77 218.23 327.99 218.12
  Q 328.25 217.99 328.28 217.69
  Q 328.89 211.73 327.13 206.51
  Q 326.45 204.51 326.05 203.02
  Q 325.57 201.29 325.58 199.42
  Q 325.68 162.17 325.60 124.93
  Q 325.60 124.69 325.49 124.48
  Q 325.34 124.20 325.35 123.89
  L 325.36 24.63
  Z"
/>
<path fill="#a8abae" d="
  M 33.86 24.79
  L 34.30 386.92
  L 29.56 386.69
  Q 28.67 386.43 28.67 384.75
  Q 28.76 308.23 28.75 25.52
  Q 28.75 24.99 29.28 24.97
  L 33.86 24.79
  Z"
/>
<path fill="#b3b4b6" d="
  M 33.86 24.79
  Q 34.38 24.68 34.86 24.76
  L 34.85 92.53
  Q 34.85 92.92 35.01 93.27
  Q 35.11 93.50 35.11 93.75
  Q 35.12 171.01 35.12 248.26
  Q 35.12 248.65 35.25 249.02
  Q 35.34 249.26 35.34 249.50
  Q 35.37 280.21 35.41 310.88
  Q 35.41 311.23 35.52 311.56
  Q 35.59 311.77 35.59 312.00
  Q 35.74 349.46 35.46 386.91
  L 34.30 386.92
  L 33.86 24.79
  Z"
/>
<path fill="#a8abae" d="
  M 337.43 24.79
  Q 337.54 24.78 337.65 24.78
  L 337.65 186.37
  Q 337.65 186.57 337.52 186.73
  Q 337.43 186.84 337.43 187.00
  Q 337.38 285.64 337.38 384.27
  Q 337.38 384.43 337.55 384.43
  L 337.55 384.43
  Q 337.72 384.43 337.72 384.27
  Q 338.04 204.54 338.20 24.80
  Q 340.44 24.56 342.16 24.96
  Q 342.12 40.19 342.09 55.25
  Q 341.79 210.29 342.01 299.41
  Q 342.09 334.73 342.32 366.85
  Q 342.38 376.12 342.24 385.49
  Q 342.23 386.00 342.65 386.28
  L 342.98 386.51
  Q 342.83 386.82 342.47 386.96
  L 337.96 386.87
  Q 338.04 385.58 337.19 384.58
  Q 336.88 384.22 336.88 383.74
  L 336.88 280.65
  Q 336.88 280.45 337.02 280.30
  Q 337.11 280.19 337.16 280.07
  Q 337.19 279.99 337.19 279.91
  Q 337.19 202.33 337.11 124.76
  Q 337.11 124.59 337.26 124.48
  Q 337.44 124.34 337.44 124.11
  L 337.43 24.79
  Z"
/>
<path fill="#b3b4b6" d="
  M 337.65 24.78
  L 338.20 24.80
  Q 338.04 204.54 337.72 384.27
  Q 337.72 384.43 337.55 384.43
  L 337.55 384.43
  Q 337.38 384.43 337.38 384.27
  Q 337.38 285.64 337.43 187.00
  Q 337.43 186.84 337.52 186.73
  Q 337.65 186.57 337.65 186.37
  L 337.65 24.78
  Z"
/>
<path fill="#d3d5d6" d="
  M 342.16 24.96
  Q 343.63 24.81 343.63 25.50
  Q 343.49 205.50 343.49 385.50
  Q 343.49 386.21 342.98 386.51
  L 342.65 386.28
  Q 342.23 386.00 342.24 385.49
  Q 342.38 376.12 342.32 366.85
  Q 342.09 334.73 342.01 299.41
  Q 341.79 210.29 342.09 55.25
  Q 342.12 40.19 342.16 24.96
  Z"
/>
<path fill="#0b0b0b" d="
  M 255.93 36.50
  Q 254.67 37.98 252.85 38.99
  Q 252.70 39.07 252.60 38.93
  L 252.43 38.68
  A 0.37 0.36 -37.8 0 1 252.50 38.19
  L 254.68 36.31
  A 0.56 0.56 0.0 0 0 254.60 35.41
  Q 253.50 34.74 252.74 33.78
  Q 251.61 32.34 253.26 33.12
  Q 254.66 33.78 255.64 35.09
  A 1.31 1.31 0.0 0 0 257.72 35.12
  Q 258.92 33.61 260.72 32.87
  Q 260.94 32.78 261.04 33.00
  L 261.14 33.27
  A 0.24 0.24 0.0 0 1 261.07 33.55
  L 258.78 35.43
  A 0.71 0.70 -50.2 0 0 258.88 36.59
  Q 260.15 37.29 260.83 38.40
  Q 261.42 39.34 260.42 38.85
  Q 258.71 38.01 257.23 36.46
  Q 256.56 35.75 255.93 36.50
  Z"
/>
<path fill="#272727" d="
  M 242.73 35.39
  Q 243.01 35.24 243.17 35.05
  Q 243.55 34.60 243.14 34.18
  Q 242.44 33.47 241.58 34.36
  Q 240.98 34.97 242.33 35.42
  L 240.12 35.44
  Q 240.97 34.06 237.50 34.58
  Q 235.52 35.27 234.12 34.22
  Q 233.89 34.04 233.82 34.33
  Q 233.78 34.47 233.88 34.59
  Q 233.93 34.64 233.99 34.69
  Q 234.13 34.80 234.28 34.85
  Q 235.01 35.07 234.24 35.13
  Q 231.44 35.34 228.86 35.32
  Q 228.27 35.31 228.26 35.90
  Q 228.23 37.08 228.86 37.99
  A 1.77 1.73 -50.0 0 0 231.88 37.69
  Q 232.07 37.29 232.47 37.02
  A 0.46 0.45 50.7 0 1 233.03 37.08
  Q 233.18 37.24 233.17 37.47
  A 0.08 0.07 -8.7 0 0 233.27 37.54
  L 235.98 36.70
  Q 236.47 36.55 236.36 37.05
  Q 236.31 37.23 236.17 37.45
  Q 235.76 37.61 235.94 38.64
  L 229.71 39.03
  Q 227.79 39.15 227.79 37.23
  L 227.79 33.70
  Q 227.79 33.18 228.30 33.14
  L 228.92 33.08
  Q 229.29 33.05 229.24 33.42
  L 229.13 34.14
  Q 229.02 34.82 229.70 34.94
  Q 230.27 35.05 230.73 34.73
  Q 231.21 34.39 230.90 33.89
  L 230.68 33.53
  Q 230.28 32.87 231.01 33.11
  Q 231.52 33.27 231.99 33.57
  A 1.62 1.61 59.5 0 0 232.95 33.82
  Q 237.83 33.48 243.58 33.55
  Q 244.96 33.56 245.49 34.77
  Q 245.73 35.31 245.14 35.33
  L 242.73 35.39
  Z"
/>
<path fill="#0b0b0b" d="
  M 274.40 34.73
  L 274.47 37.68
  Q 274.50 38.69 275.50 38.56
  Q 276.23 38.46 276.98 38.54
  Q 277.76 38.63 277.00 38.83
  Q 275.68 39.18 274.18 38.79
  A 0.92 0.92 0.0 0 1 273.49 37.90
  L 273.46 34.28
  A 0.95 0.95 0.0 0 1 274.05 33.40
  Q 275.72 32.72 277.35 33.24
  Q 277.56 33.31 277.51 33.61
  A 0.25 0.24 -82.3 0 1 277.25 33.82
  L 275.53 33.67
  A 1.04 1.03 -88.0 0 0 274.40 34.73
  Z"
/>
<path fill="#0b0b0b" d="
  M 265.12 34.16
  Q 264.86 34.12 264.62 34.10
  Q 263.62 34.01 264.54 33.62
  Q 265.40 33.26 266.26 33.23
  Q 266.95 33.22 266.96 33.90
  L 267.05 38.22
  Q 267.06 38.71 266.57 38.69
  L 266.23 38.68
  Q 265.78 38.66 265.79 38.21
  L 265.84 35.01
  Q 265.85 34.28 265.12 34.16
  Z"
/>
<path fill="#545556" d="
  M 292.81 34.93
  Q 294.86 33.76 297.21 34.84
  Q 297.49 34.97 297.76 34.83
  Q 299.63 33.90 301.87 34.62
  Q 302.32 34.77 302.42 35.24
  Q 302.75 36.74 302.53 38.17
  Q 302.37 39.22 301.38 38.81
  Q 300.98 38.64 301.02 38.20
  Q 301.12 37.02 301.04 35.97
  Q 300.98 35.22 300.23 35.29
  L 299.75 35.34
  A 0.89 0.88 -3.8 0 0 298.95 36.25
  L 299.03 38.27
  Q 299.05 38.89 298.43 38.86
  Q 298.20 38.84 298.01 38.69
  Q 297.55 38.32 297.03 38.61
  Q 294.61 39.97 292.60 38.39
  Q 292.34 38.19 292.08 38.38
  Q 290.15 39.83 287.74 38.78
  Q 287.23 38.56 287.23 38.00
  L 287.23 33.95
  Q 287.23 33.12 288.04 33.30
  Q 288.57 33.41 288.80 33.93
  Q 289.15 34.70 289.97 34.49
  Q 291.07 34.19 292.04 34.89
  Q 292.42 35.16 292.81 34.93
  Z
  M 289.5755 38.4466
  A 1.62 1.08 93.7 0 0 290.7577 36.8997
  A 1.62 1.08 93.7 0 0 289.7845 35.2134
  A 1.62 1.08 93.7 0 0 288.6023 36.7603
  A 1.62 1.08 93.7 0 0 289.5755 38.4466
  Z
  M 294.8699 38.3597
  A 1.56 1.01 88.9 0 0 295.8498 36.7806
  A 1.56 1.01 88.9 0 0 294.8101 35.2403
  A 1.56 1.01 88.9 0 0 293.8302 36.8194
  A 1.56 1.01 88.9 0 0 294.8699 38.3597
  Z"
/>
<path fill="#272727" d="
  M 247.27 34.48
  Q 247.24 34.06 247.49 33.78
  Q 247.89 33.34 247.99 33.92
  Q 248.07 34.44 248.02 34.94
  Q 247.98 35.25 247.70 35.40
  Q 247.49 35.50 247.27 35.59
  Q 246.74 35.79 246.84 35.23
  Q 246.89 34.99 247.09 34.86
  A 0.43 0.42 -20.1 0 0 247.27 34.48
  Z"
/>
<path fill="#a8abae" d="
  M 242.73 35.39
  Q 242.40 35.61 242.33 35.42
  Q 240.98 34.97 241.58 34.36
  Q 242.44 33.47 243.14 34.18
  Q 243.55 34.60 243.17 35.05
  Q 243.01 35.24 242.73 35.39
  Z"
/>
<path fill="#808082" d="
  M 240.12 35.44
  L 237.50 34.58
  Q 240.97 34.06 240.12 35.44
  Z"
/>
<path fill="#272727" d="
  M 282.46 34.85
  L 282.68 38.43
  Q 282.39 38.77 282.08 38.83
  Q 281.48 38.94 281.63 38.35
  C 281.89 37.30 281.54 36.66 281.68 35.54
  Q 281.74 35.13 281.32 35.01
  Q 280.61 34.81 281.33 34.62
  Q 281.73 34.51 282.46 34.85
  Z"
/>
<path fill="#272727" d="
  M 283.47 38.42
  L 283.95 34.77
  Q 285.25 34.17 286.07 34.89
  Q 286.55 35.32 285.92 35.48
  Q 284.13 35.91 284.91 37.93
  A 0.54 0.53 -17.1 0 1 284.53 38.64
  Q 284.15 38.72 283.47 38.42
  Z"
/>
<path fill="#808082" d="
  M 282.46 34.85
  L 283.95 34.77
  L 283.47 38.42
  L 282.68 38.43
  L 282.46 34.85
  Z"
/>
<ellipse fill="#d3d5d6" cx="0.00" cy="0.00" transform="translate(289.68,36.83) rotate(93.7)" rx="1.62" ry="1.08"/>
<ellipse fill="#d3d5d6" cx="0.00" cy="0.00" transform="translate(294.84,36.80) rotate(88.9)" rx="1.56" ry="1.01"/>
<ellipse fill="#545556" cx="0.00" cy="0.00" transform="translate(270.43,36.05) rotate(22.1)" rx="0.80" ry="0.64"/>
<path fill="#0b0b0b" d="
  M 278.72 38.11
  Q 278.06 37.45 278.83 36.92
  Q 279.36 36.55 280.03 36.42
  Q 280.73 36.30 280.10 36.61
  Q 279.95 36.68 279.87 36.83
  A 1.31 1.30 -44.8 0 0 279.86 38.15
  Q 280.17 38.69 280.78 38.76
  Q 281.80 38.89 280.77 38.98
  Q 279.67 39.07 278.72 38.11
  Z"
/>
<path fill="#545556" d="
  M 235.94 38.64
  Q 235.76 37.61 236.17 37.45
  Q 236.02 38.17 236.51 38.32
  Q 237.43 38.59 237.78 37.94
  Q 238.01 37.53 237.60 37.29
  Q 237.44 37.20 237.43 36.96
  Q 237.42 36.56 237.81 36.64
  Q 238.83 36.86 238.86 37.86
  Q 238.87 38.40 238.37 38.63
  Q 237.51 39.01 235.94 38.64
  Z"
/>
<path fill="#181818" d="
  M 75.51 56.55
  Q 76.14 57.60 77.25 58.53
  Q 74.94 58.32 75.51 56.55
  Z"
/>
<path fill="#272727" d="
  M 172.44 62.10
  Q 172.01 66.69 166.26 67.07
  Q 162.80 67.30 159.27 67.11
  Q 148.34 66.57 137.40 67.32
  C 136.19 67.40 135.15 68.11 133.90 68.03
  Q 132.73 67.96 131.58 68.07
  Q 120.91 69.15 116.50 68.60
  Q 113.54 68.23 110.56 67.99
  Q 109.44 67.90 104.52 67.36
  Q 99.68 66.83 94.26 67.07
  Q 92.46 67.16 87.20 67.15
  L 76.45 67.15
  Q 71.88 66.87 69.51 62.79
  A 0.32 0.31 -32.6 0 1 69.61 62.37
  L 69.84 62.21
  Q 70.08 62.04 70.24 62.28
  Q 71.92 64.85 75.75 64.89
  Q 121.62 65.35 167.00 64.86
  Q 170.25 64.82 172.44 62.10
  Z"
/>
<path fill="#545556" d="
  M 159.27 67.11
  Q 156.23 67.44 154.18 70.21
  Q 153.88 70.62 153.42 70.82
  Q 151.17 71.80 149.49 73.55
  A 1.16 1.15 -67.2 0 1 148.64 73.90
  Q 145.02 73.87 145.74 75.24
  L 105.24 75.20
  Q 107.13 75.09 108.99 74.92
  Q 109.23 74.90 109.22 74.66
  L 109.22 74.65
  Q 109.21 74.41 108.97 74.41
  Q 101.82 74.29 94.38 73.85
  Q 93.89 73.82 93.56 73.44
  Q 92.24 71.85 90.23 71.14
  Q 88.27 70.44 87.20 67.15
  Q 92.46 67.16 94.26 67.07
  Q 99.68 66.83 104.52 67.36
  Q 109.44 67.90 110.56 67.99
  Q 113.54 68.23 116.50 68.60
  Q 120.91 69.15 131.58 68.07
  Q 132.73 67.96 133.90 68.03
  C 135.15 68.11 136.19 67.40 137.40 67.32
  Q 148.34 66.57 159.27 67.11
  Z"
/>
<path fill="#808082" d="
  M 76.45 67.15
  L 87.20 67.15
  Q 88.27 70.44 90.23 71.14
  Q 92.24 71.85 93.56 73.44
  Q 93.89 73.82 94.38 73.85
  Q 101.82 74.29 108.97 74.41
  Q 109.21 74.41 109.22 74.65
  L 109.22 74.66
  Q 109.23 74.90 108.99 74.92
  Q 107.13 75.09 105.24 75.20
  L 90.48 75.30
  Q 91.11 74.12 88.49 74.22
  Q 83.10 74.41 77.70 74.33
  Q 77.17 74.32 77.12 73.80
  L 76.45 67.15
  Z"
/>
<path fill="#272727" d="
  M 90.48 75.30
  L 105.24 75.20
  L 145.74 75.24
  L 157.80 74.97
  L 186.03 75.36
  L 307.04 75.44
  L 315.92 75.58
  Q 316.44 75.59 316.45 76.11
  Q 316.69 99.45 316.00 124.23
  C 315.92 127.11 316.65 130.44 316.42 132.78
  Q 315.93 137.99 316.11 145.17
  C 316.58 163.43 316.35 181.78 316.48 200.09
  L 307.38 199.89
  A 1.28 1.28 0.0 0 1 306.13 198.61
  L 306.24 87.24
  A 1.39 1.38 0.0 0 0 304.85 85.86
  Q 258.92 86.04 216.42 85.83
  C 207.90 85.79 199.01 85.54 190.28 85.92
  C 183.61 86.22 176.87 85.55 170.28 85.61
  Q 130.68 85.92 96.49 85.90
  C 95.01 85.90 93.57 85.59 92.13 85.77
  Q 90.51 85.96 88.87 85.95
  Q 81.99 85.89 75.19 85.86
  Q 74.06 85.85 72.92 85.54
  Q 72.19 85.34 72.94 85.22
  C 76.17 84.69 77.84 80.37 74.80 78.36
  C 72.18 76.64 69.53 79.04 68.60 81.47
  Q 68.40 82.01 68.64 82.52
  Q 69.28 83.92 70.54 84.76
  Q 70.86 84.97 70.90 85.35
  Q 70.92 85.50 70.81 85.61
  Q 70.50 85.91 70.07 85.89
  Q 68.26 85.82 66.62 85.87
  A 0.58 0.58 0.0 0 0 66.06 86.45
  L 66.15 353.47
  Q 66.15 354.04 66.72 354.04
  L 305.56 353.99
  A 0.55 0.55 0.0 0 0 306.11 353.44
  L 306.30 214.14
  A 1.49 1.49 0.0 0 0 304.82 212.65
  L 294.73 212.64
  L 305.14 212.52
  Q 305.63 212.52 306.01 212.84
  Q 306.53 213.30 307.00 213.27
  Q 311.88 213.01 317.67 213.26
  Q 316.08 218.04 316.43 221.91
  Q 316.13 278.08 316.19 333.50
  Q 316.21 349.15 316.63 364.78
  Q 316.01 365.72 315.75 365.12
  L 308.85 364.96
  Q 299.08 363.54 289.00 364.14
  Q 278.29 364.77 267.54 364.58
  L 204.97 364.56
  Q 202.74 364.29 200.50 364.24
  Q 176.79 363.71 161.25 363.93
  Q 152.37 364.05 143.50 363.92
  Q 119.32 363.58 95.52 364.08
  C 93.41 364.12 91.05 364.55 88.25 364.21
  Q 83.73 363.67 71.47 364.15
  Q 70.41 364.19 69.15 364.61
  Q 68.03 364.99 66.76 364.96
  Q 62.46 364.87 60.01 365.06
  L 57.99 365.02
  L 55.20 364.89
  L 67.40 364.92
  Q 68.35 364.92 68.81 364.08
  Q 68.84 364.01 68.98 363.75
  A 0.47 0.47 0.0 0 0 68.60 363.06
  Q 63.05 362.67 58.80 363.15
  A 1.76 1.75 84.6 0 1 56.86 361.53
  Q 56.42 355.41 56.89 349.86
  C 56.97 348.97 56.69 348.25 56.68 347.39
  Q 56.52 331.45 56.62 313.11
  Q 56.65 308.15 56.64 303.20
  Q 56.59 263.49 56.62 226.37
  C 56.62 224.84 57.06 223.40 56.85 221.88
  Q 56.62 220.24 56.62 218.58
  Q 56.63 210.36 56.63 201.97
  A 75.31 2.99 -89.9 0 1 56.64 191.32
  Q 56.69 165.25 56.46 137.26
  Q 56.38 127.65 56.55 117.27
  Q 56.93 94.98 56.46 80.75
  Q 56.44 80.23 56.39 79.71
  Q 56.35 79.22 56.66 78.84
  Q 57.12 78.26 57.07 77.48
  Q 57.04 77.11 57.36 76.92
  Q 57.52 76.83 57.69 76.76
  Q 58.11 76.60 58.13 76.18
  Q 58.14 75.85 57.77 75.48
  L 90.48 75.30
  Z
  M 96.24 79.82
  C 95.67 78.02 92.95 76.92 91.52 78.14
  Q 90.09 79.34 88.78 81.21
  Q 88.43 81.72 88.68 82.28
  C 91.01 87.44 98.02 85.45 96.24 79.82
  Z
  M 314.0757 135.2367
  A 2.75 1.17 92.8 0 0 315.3786 132.5472
  A 2.75 1.17 92.8 0 0 314.3443 129.7433
  A 2.75 1.17 92.8 0 0 313.0414 132.4328
  A 2.75 1.17 92.8 0 0 314.0757 135.2367
  Z
  M 70.69 362.49
  Q 71.82 363.27 73.08 362.90
  A 1.22 1.08 38.1 0 1 73.58 362.87
  Q 74.37 362.98 74.74 362.27
  Q 75.35 361.09 75.96 359.88
  C 77.02 357.77 74.80 355.60 73.05 354.79
  Q 72.51 354.54 71.97 354.78
  C 68.50 356.29 66.63 359.67 70.69 362.49
  Z
  M 91.64 355.02
  L 88.92 357.72
  A 1.54 1.54 0.0 0 0 88.91 359.90
  L 90.60 361.61
  A 3.44 3.38 45.2 0 0 95.42 361.66
  L 95.54 361.55
  A 3.44 3.38 45.2 0 0 95.51 356.73
  L 93.82 355.03
  A 1.54 1.54 0.0 0 0 91.64 355.02
  Z"
/>
<path fill="#181818" d="
  M 57.77 75.48
  Q 58.14 75.85 58.13 76.18
  Q 58.11 76.60 57.69 76.76
  Q 57.52 76.83 57.36 76.92
  Q 57.04 77.11 57.07 77.48
  Q 57.12 78.26 56.66 78.84
  Q 56.35 79.22 56.39 79.71
  Q 56.44 80.23 56.46 80.75
  Q 56.93 94.98 56.55 117.27
  Q 56.38 127.65 56.46 137.26
  Q 56.69 165.25 56.64 191.32
  A 75.31 2.99 -89.9 0 0 56.63 201.97
  Q 56.63 210.36 56.62 218.58
  Q 56.62 220.24 56.85 221.88
  C 57.06 223.40 56.62 224.84 56.62 226.37
  Q 56.59 263.49 56.64 303.20
  Q 56.65 308.15 56.62 313.11
  Q 56.52 331.45 56.68 347.39
  C 56.69 348.25 56.97 348.97 56.89 349.86
  Q 56.42 355.41 56.86 361.53
  A 1.76 1.75 84.6 0 0 58.80 363.15
  Q 63.05 362.67 68.60 363.06
  A 0.47 0.47 0.0 0 1 68.98 363.75
  Q 68.84 364.01 68.81 364.08
  Q 68.35 364.92 67.40 364.92
  L 55.20 364.89
  Q 55.07 364.84 54.93 364.80
  L 54.95 76.08
  A 0.51 0.51 0.0 0 1 55.44 75.57
  L 57.77 75.48
  Z"
/>
<path fill="#0b0b0b" d="
  M 91.52 78.14
  C 92.95 76.92 95.67 78.02 96.24 79.82
  C 98.02 85.45 91.01 87.44 88.68 82.28
  Q 88.43 81.72 88.78 81.21
  Q 90.09 79.34 91.52 78.14
  Z"
/>
<path fill="#0b0b0b" d="
  M 316.48 200.09
  Q 316.60 200.58 316.49 201.19
  Q 316.40 201.73 315.86 201.71
  Q 305.21 201.47 293.69 201.66
  C 292.17 201.69 291.32 202.64 290.47 203.72
  Q 287.77 207.17 290.59 210.64
  Q 292.28 212.71 294.73 212.64
  L 304.82 212.65
  A 1.49 1.49 0.0 0 1 306.30 214.14
  L 306.11 353.44
  A 0.55 0.55 0.0 0 1 305.56 353.99
  L 66.72 354.04
  Q 66.15 354.04 66.15 353.47
  L 66.06 86.45
  A 0.58 0.58 0.0 0 1 66.62 85.87
  Q 68.26 85.82 70.07 85.89
  Q 70.50 85.91 70.81 85.61
  Q 70.92 85.50 70.90 85.35
  Q 70.86 84.97 70.54 84.76
  Q 69.28 83.92 68.64 82.52
  Q 68.40 82.01 68.60 81.47
  C 69.53 79.04 72.18 76.64 74.80 78.36
  C 77.84 80.37 76.17 84.69 72.94 85.22
  Q 72.19 85.34 72.92 85.54
  Q 74.06 85.85 75.19 85.86
  Q 81.99 85.89 88.87 85.95
  Q 90.51 85.96 92.13 85.77
  C 93.57 85.59 95.01 85.90 96.49 85.90
  Q 130.68 85.92 170.28 85.61
  C 176.87 85.55 183.61 86.22 190.28 85.92
  C 199.01 85.54 207.90 85.79 216.42 85.83
  Q 258.92 86.04 304.85 85.86
  A 1.39 1.38 0.0 0 1 306.24 87.24
  L 306.13 198.61
  A 1.28 1.28 0.0 0 0 307.38 199.89
  L 316.48 200.09
  Z
  M 162.19 92.27
  Q 161.77 93.87 161.45 92.25
  Q 160.99 89.96 161.17 87.93
  Q 161.27 86.77 160.10 86.77
  L 157.05 86.79
  A 1.09 1.09 0.0 0 0 155.98 88.05
  C 156.55 91.53 155.92 94.77 157.02 98.27
  Q 158.21 102.07 159.49 105.42
  A 0.88 0.87 -10.8 0 1 158.68 106.61
  Q 140.68 106.71 121.93 107.03
  C 107.25 107.29 92.35 106.82 77.62 106.42
  C 74.24 106.33 70.93 106.73 67.48 106.70
  A 0.39 0.38 -5.0 0 0 67.10 107.15
  L 67.17 107.58
  A 1.01 1.00 -4.5 0 0 68.15 108.41
  L 87.49 108.65
  Q 88.11 108.66 88.69 108.86
  Q 89.32 109.09 89.99 109.11
  Q 98.20 109.37 103.90 109.26
  Q 133.80 108.67 160.20 108.55
  A 0.86 0.86 0.0 0 1 161.01 109.13
  Q 162.61 113.64 162.12 118.62
  A 1.07 1.07 0.0 0 0 163.19 119.79
  Q 183.87 119.73 202.90 119.81
  Q 205.38 119.82 208.28 119.46
  A 0.79 0.78 86.7 0 0 208.97 118.68
  L 208.96 87.81
  Q 208.96 87.01 208.16 86.92
  Q 201.37 86.20 194.04 86.86
  Q 192.55 86.99 193.64 88.02
  Q 194.57 88.89 195.51 89.74
  C 197.74 91.75 198.65 94.65 198.61 97.61
  Q 198.50 106.20 191.34 109.45
  C 182.25 113.59 173.93 107.80 172.28 98.55
  Q 171.71 95.39 173.17 92.78
  Q 174.70 90.03 177.50 88.16
  Q 179.02 87.15 177.20 87.00
  Q 170.41 86.48 163.04 86.89
  A 0.98 0.98 0.0 0 0 162.13 88.06
  Q 162.63 90.58 162.19 92.27
  Z
  M 279.58 110.19
  Q 281.21 110.55 282.92 110.35
  Q 284.50 110.16 286.11 110.18
  Q 288.73 110.22 291.30 110.32
  Q 291.57 110.33 291.67 110.08
  Q 291.76 109.86 292.00 109.86
  Q 296.41 109.89 299.00 109.64
  Q 299.12 109.63 299.12 109.51
  Q 299.13 109.46 299.15 109.42
  Q 299.24 109.21 299.47 109.20
  Q 301.89 109.10 304.11 108.59
  Q 304.54 108.49 304.54 108.05
  L 304.54 107.48
  Q 304.54 107.19 304.25 107.18
  Q 299.56 107.02 294.45 106.82
  Q 285.33 106.45 271.75 106.68
  Q 269.53 106.72 267.00 106.71
  C 255.28 106.66 243.66 107.19 231.69 106.76
  Q 222.12 106.41 213.20 106.66
  A 0.64 0.63 4.6 0 0 212.60 107.16
  Q 212.50 107.63 212.91 107.86
  Q 214.00 108.48 215.12 108.49
  Q 236.44 108.79 257.78 108.75
  Q 263.50 108.74 268.33 109.24
  Q 273.38 109.77 279.04 110.32
  Q 279.13 110.33 279.19 110.28
  Q 279.27 110.23 279.35 110.20
  Q 279.46 110.16 279.58 110.19
  Z
  M 186.3553 150.6685
  A 0.90 0.90 0.0 0 0 185.4537 149.7701
  L 185.4137 149.7701
  A 0.90 0.90 0.0 0 0 184.5153 150.6717
  L 184.7647 293.5915
  A 0.90 0.90 0.0 0 0 185.6663 294.4899
  L 185.7063 294.4899
  A 0.90 0.90 0.0 0 0 186.6047 293.5883
  L 186.3553 150.6685
  Z
  M 77.75 301.98
  Q 77.76 302.77 78.05 303.56
  Q 78.22 304.07 77.99 304.54
  L 76.86 306.80
  A 1.27 1.27 0.0 0 0 78.00 308.63
  C 82.31 308.64 86.62 308.95 90.98 308.96
  Q 135.86 309.13 178.26 309.36
  C 191.01 309.43 203.48 309.11 215.69 309.51
  Q 227.78 309.90 232.69 309.64
  Q 243.16 309.07 252.14 309.30
  C 260.80 309.52 269.10 309.30 277.55 309.10
  Q 279.47 309.05 281.71 308.75
  A 1.68 1.67 -4.7 0 0 283.17 307.04
  L 282.93 299.08
  A 2.85 2.84 -85.1 0 0 280.66 296.38
  C 276.25 295.49 272.33 295.69 267.90 295.68
  Q 236.25 295.60 201.25 295.76
  Q 173.21 295.89 149.75 295.87
  Q 139.37 295.86 129.76 295.66
  Q 104.37 295.12 79.36 296.05
  A 2.09 2.08 -6.7 0 0 77.39 298.54
  Q 77.72 300.22 77.75 301.98
  Z"
/>
<path fill="#181818" d="
  M 162.19 92.27
  Q 162.63 90.58 162.13 88.06
  A 0.98 0.98 0.0 0 1 163.04 86.89
  Q 170.41 86.48 177.20 87.00
  Q 179.02 87.15 177.50 88.16
  Q 174.70 90.03 173.17 92.78
  Q 171.71 95.39 172.28 98.55
  C 173.93 107.80 182.25 113.59 191.34 109.45
  Q 198.50 106.20 198.61 97.61
  C 198.65 94.65 197.74 91.75 195.51 89.74
  Q 194.57 88.89 193.64 88.02
  Q 192.55 86.99 194.04 86.86
  Q 201.37 86.20 208.16 86.92
  Q 208.96 87.01 208.96 87.81
  L 208.97 118.68
  A 0.79 0.78 86.7 0 1 208.28 119.46
  Q 205.38 119.82 202.90 119.81
  Q 183.87 119.73 163.19 119.79
  A 1.07 1.07 0.0 0 1 162.12 118.62
  Q 162.61 113.64 161.01 109.13
  A 0.86 0.86 0.0 0 0 160.20 108.55
  Q 133.80 108.67 103.90 109.26
  Q 98.20 109.37 89.99 109.11
  Q 89.32 109.09 88.69 108.86
  Q 88.11 108.66 87.49 108.65
  L 68.15 108.41
  A 1.01 1.00 -4.5 0 1 67.17 107.58
  L 67.10 107.15
  A 0.39 0.38 -5.0 0 1 67.48 106.70
  C 70.93 106.73 74.24 106.33 77.62 106.42
  C 92.35 106.82 107.25 107.29 121.93 107.03
  Q 140.68 106.71 158.68 106.61
  A 0.88 0.87 -10.8 0 0 159.49 105.42
  Q 158.21 102.07 157.02 98.27
  C 155.92 94.77 156.55 91.53 155.98 88.05
  A 1.09 1.09 0.0 0 1 157.05 86.79
  L 160.10 86.77
  Q 161.27 86.77 161.17 87.93
  Q 160.99 89.96 161.45 92.25
  Q 161.77 93.87 162.19 92.27
  Z"
/>
<path fill="#181818" d="
  M 279.35 110.20
  Q 279.27 110.23 279.19 110.28
  Q 279.13 110.33 279.04 110.32
  Q 273.38 109.77 268.33 109.24
  Q 263.50 108.74 257.78 108.75
  Q 236.44 108.79 215.12 108.49
  Q 214.00 108.48 212.91 107.86
  Q 212.50 107.63 212.60 107.16
  A 0.64 0.63 4.6 0 1 213.20 106.66
  Q 222.12 106.41 231.69 106.76
  C 243.66 107.19 255.28 106.66 267.00 106.71
  Q 269.53 106.72 271.75 106.68
  Q 285.33 106.45 294.45 106.82
  Q 299.56 107.02 304.25 107.18
  Q 304.54 107.19 304.54 107.48
  L 304.54 108.05
  Q 304.54 108.49 304.11 108.59
  Q 301.89 109.10 299.47 109.20
  Q 299.24 109.21 299.15 109.42
  Q 299.13 109.46 299.12 109.51
  Q 299.12 109.63 299.00 109.64
  Q 296.41 109.89 292.00 109.86
  Q 291.76 109.86 291.67 110.08
  Q 291.57 110.33 291.30 110.32
  Q 288.73 110.22 286.11 110.18
  Q 284.50 110.16 282.92 110.35
  Q 281.21 110.55 279.58 110.19
  Q 279.46 110.16 279.35 110.20
  Z"
/>
<ellipse fill="#a8abae" cx="0.00" cy="0.00" transform="translate(314.21,132.49) rotate(92.8)" rx="2.75" ry="1.17"/>
<rect fill="#181818" x="-0.92" y="-72.36" transform="translate(185.56,222.13) rotate(-0.1)" width="1.84" height="144.72" rx="0.90"/>
<path fill="#545556" d="
  M 302.79 208.35
  Q 298.88 209.17 294.23 209.16
  Q 293.77 209.16 293.55 208.76
  Q 292.86 207.51 293.91 205.98
  Q 294.31 205.40 294.97 205.63
  Q 295.77 205.90 296.42 206.44
  Q 296.88 206.83 297.47 206.75
  C 299.82 206.46 302.24 206.75 304.60 206.42
  C 305.85 206.24 307.35 206.57 308.33 207.39
  Q 309.27 208.19 310.16 207.12
  Q 310.63 206.56 310.72 207.28
  L 310.78 207.80
  A 1.07 1.06 62.4 0 1 310.52 208.64
  Q 309.28 210.03 307.74 209.03
  A 0.76 0.76 0.0 0 0 307.10 208.95
  Q 305.08 209.63 303.62 208.54
  Q 303.25 208.26 302.79 208.35
  Z"
/>
<path fill="#545556" d="
  M 314.86 208.05
  Q 315.17 207.77 315.29 207.34
  Q 315.45 206.80 316.01 206.73
  Q 318.38 206.45 320.31 206.85
  A 1.05 1.02 -19.2 0 1 320.74 207.05
  Q 321.42 207.62 321.07 208.33
  A 0.69 0.69 0.0 0 1 320.49 208.71
  L 313.14 209.05
  A 0.81 0.80 79.6 0 1 312.34 208.49
  Q 312.09 207.67 312.16 206.69
  A 0.41 0.41 0.0 0 1 312.76 206.36
  Q 313.33 206.66 313.30 207.32
  A 0.93 0.93 0.0 0 0 314.86 208.05
  Z"
/>
<path fill="#808082" d="
  M 316.43 221.91
  Q 316.08 218.04 317.67 213.26
  L 323.98 212.12
  A 0.66 0.66 0.0 0 1 324.76 212.83
  Q 324.33 217.40 322.00 221.34
  Q 321.71 221.82 321.15 221.83
  L 316.43 221.91
  Z"
/>
<path fill="#181818" d="
  M 77.75 301.98
  Q 77.72 300.22 77.39 298.54
  A 2.09 2.08 -6.7 0 1 79.36 296.05
  Q 104.37 295.12 129.76 295.66
  Q 139.37 295.86 149.75 295.87
  Q 173.21 295.89 201.25 295.76
  Q 236.25 295.60 267.90 295.68
  C 272.33 295.69 276.25 295.49 280.66 296.38
  A 2.85 2.84 -85.1 0 1 282.93 299.08
  L 283.17 307.04
  A 1.68 1.67 -4.7 0 1 281.71 308.75
  Q 279.47 309.05 277.55 309.10
  C 269.10 309.30 260.80 309.52 252.14 309.30
  Q 243.16 309.07 232.69 309.64
  Q 227.78 309.90 215.69 309.51
  C 203.48 309.11 191.01 309.43 178.26 309.36
  Q 135.86 309.13 90.98 308.96
  C 86.62 308.95 82.31 308.64 78.00 308.63
  A 1.27 1.27 0.0 0 1 76.86 306.80
  L 77.99 304.54
  Q 78.22 304.07 78.05 303.56
  Q 77.76 302.77 77.75 301.98
  Z"
/>
<path fill="#0b0b0b" d="
  M 70.69 362.49
  C 66.63 359.67 68.50 356.29 71.97 354.78
  Q 72.51 354.54 73.05 354.79
  C 74.80 355.60 77.02 357.77 75.96 359.88
  Q 75.35 361.09 74.74 362.27
  Q 74.37 362.98 73.58 362.87
  A 1.22 1.08 38.1 0 0 73.08 362.90
  Q 71.82 363.27 70.69 362.49
  Z"
/>
<path fill="#0b0b0b" d="
  M 91.64 355.02
  A 1.54 1.54 0.0 0 1 93.82 355.03
  L 95.51 356.73
  A 3.44 3.38 45.2 0 1 95.54 361.55
  L 95.42 361.66
  A 3.44 3.38 45.2 0 1 90.60 361.61
  L 88.91 359.90
  A 1.54 1.54 0.0 0 1 88.92 357.72
  L 91.64 355.02
  Z"
/>
<path fill="#545556" d="
  M 204.97 364.56
  L 60.01 365.06
  Q 62.46 364.87 66.76 364.96
  Q 68.03 364.99 69.15 364.61
  Q 70.41 364.19 71.47 364.15
  Q 83.73 363.67 88.25 364.21
  C 91.05 364.55 93.41 364.12 95.52 364.08
  Q 119.32 363.58 143.50 363.92
  Q 152.37 364.05 161.25 363.93
  Q 176.79 363.71 200.50 364.24
  Q 202.74 364.29 204.97 364.56
  Z"
/>
<path fill="#808082" d="
  M 308.85 364.96
  L 267.54 364.58
  Q 278.29 364.77 289.00 364.14
  Q 299.08 363.54 308.85 364.96
  Z"
/>
<path fill="#b3b4b6" d="
  M 204.97 364.56
  L 267.54 364.58
  L 308.85 364.96
  L 315.75 365.12
  L 316.13 386.56
  Q 316.07 386.85 316.22 387.24
  Q 315.50 387.90 314.25 387.90
  Q 194.50 387.99 74.75 387.96
  Q 61.93 387.96 55.32 387.65
  L 55.38 365.82
  Q 55.38 365.35 55.84 365.29
  L 57.99 365.02
  L 60.01 365.06
  L 204.97 364.56
  Z"
/>
<path fill="#808082" d="
  M 54.93 364.80
  Q 55.07 364.84 55.20 364.89
  L 57.99 365.02
  L 55.84 365.29
  Q 55.38 365.35 55.38 365.82
  L 55.32 387.65
  Q 54.39 387.09 53.48 387.44
  Q 52.74 387.72 53.52 387.82
  L 54.34 387.91
  A 1.36 1.31 68.3 0 1 55.05 388.23
  Q 55.70 388.81 57.04 388.94
  L 35.56 389.53
  Q 35.05 389.55 35.00 390.06
  Q 34.86 391.43 36.51 391.49
  Q 41.07 391.66 56.80 391.82
  L 34.76 391.64
  Q 29.46 391.56 29.56 386.69
  L 34.30 386.92
  L 35.46 386.91
  L 47.65 386.93
  Q 48.54 387.08 49.16 386.95
  L 53.80 387.07
  Q 54.36 387.08 54.49 386.54
  C 54.69 385.74 54.22 384.94 54.23 384.12
  Q 54.34 375.93 54.28 367.75
  Q 54.27 366.13 54.93 364.80
  Z"
/>
<path fill="#808082" d="
  M 316.63 364.78
  C 316.70 365.56 317.02 366.32 317.00 367.09
  Q 316.84 376.17 316.97 385.25
  Q 316.98 386.21 316.13 386.56
  L 315.75 365.12
  Q 316.01 365.72 316.63 364.78
  Z"
/>
<path fill="#808082" d="
  M 324.72 387.01
  L 326.02 386.93
  L 337.96 386.87
  L 342.47 386.96
  Q 341.53 388.17 341.36 389.60
  A 1.33 1.32 88.3 0 1 340.27 390.76
  L 336.76 391.39
  Q 336.36 391.02 337.10 390.54
  A 0.59 0.58 60.7 0 0 337.31 389.79
  Q 337.03 389.20 336.00 389.18
  Q 320.89 388.88 315.77 388.95
  L 317.48 387.72
  Q 317.63 387.61 317.48 387.49
  L 317.27 387.33
  L 324.72 387.01
  Z"
/>
<path fill="#272727" d="
  M 55.32 387.65
  Q 61.93 387.96 74.75 387.96
  Q 194.50 387.99 314.25 387.90
  Q 315.50 387.90 316.22 387.24
  Q 316.65 387.43 317.27 387.33
  L 317.48 387.49
  Q 317.63 387.61 317.48 387.72
  L 315.77 388.95
  L 57.04 388.94
  Q 55.70 388.81 55.05 388.23
  A 1.36 1.31 68.3 0 0 54.34 387.91
  L 53.52 387.82
  Q 52.74 387.72 53.48 387.44
  Q 54.39 387.09 55.32 387.65
  Z"
/>
<path fill="#b3b4b6" d="
  M 315.77 388.95
  Q 320.89 388.88 336.00 389.18
  Q 337.03 389.20 337.31 389.79
  A 0.59 0.58 60.7 0 1 337.10 390.54
  Q 336.36 391.02 336.76 391.39
  Q 336.62 391.48 336.49 391.57
  L 103.70 391.80
  L 56.80 391.82
  Q 41.07 391.66 36.51 391.49
  Q 34.86 391.43 35.00 390.06
  Q 35.05 389.55 35.56 389.53
  L 57.04 388.94
  L 315.77 388.95
  Z"
/>
<path fill="#181818" d="
  M 336.49 391.57
  Q 333.76 393.56 333.13 395.04
  Q 322.84 393.71 312.45 394.37
  L 104.47 394.58
  L 96.27 394.35
  L 111.82 394.15
  A 1.17 1.13 23.0 0 0 112.55 393.87
  Q 113.24 393.26 114.19 393.62
  Q 114.30 393.66 114.34 393.56
  Q 114.41 393.39 114.54 393.38
  Q 114.65 393.38 114.54 393.37
  Q 114.48 393.36 114.44 393.34
  Q 114.25 393.21 114.02 393.24
  Q 113.75 393.28 113.49 393.26
  Q 113.24 393.23 113.02 393.08
  Q 112.93 393.02 113.00 392.94
  Q 113.39 392.44 112.75 392.44
  Q 108.20 392.45 103.70 391.80
  L 336.49 391.57
  Z"
/>
<path fill="#0b0b0b" d="
  M 34.76 391.64
  L 56.80 391.82
  L 103.70 391.80
  Q 108.20 392.45 112.75 392.44
  Q 113.39 392.44 113.00 392.94
  Q 112.93 393.02 113.02 393.08
  Q 113.24 393.23 113.49 393.26
  Q 113.75 393.28 114.02 393.24
  Q 114.25 393.21 114.44 393.34
  Q 114.48 393.36 114.54 393.37
  Q 114.65 393.38 114.54 393.38
  Q 114.41 393.39 114.34 393.56
  Q 114.30 393.66 114.19 393.62
  Q 113.24 393.26 112.55 393.87
  A 1.17 1.13 23.0 0 1 111.82 394.15
  L 96.27 394.35
  Q 88.55 394.01 80.75 393.91
  Q 75.97 393.86 71.25 393.73
  Q 69.13 393.67 66.76 393.88
  Q 64.51 394.09 62.25 394.11
  Q 50.98 394.19 39.75 394.15
  Q 37.11 394.14 38.39 395.47
  L 38.09 395.43
  Q 37.91 395.41 37.80 395.27
  Q 37.66 395.10 37.74 394.98
  Q 38.05 394.48 37.50 394.24
  Q 35.84 393.50 34.76 391.64
  Z"
/>
<path fill="#272727" d="
  M 96.27 394.35
  L 104.47 394.58
  L 104.05 394.65
  Q 103.50 394.76 103.95 395.09
  L 104.23 395.30
  L 38.39 395.47
  Q 37.11 394.14 39.75 394.15
  Q 50.98 394.19 62.25 394.11
  Q 64.51 394.09 66.76 393.88
  Q 69.13 393.67 71.25 393.73
  Q 75.97 393.86 80.75 393.91
  Q 88.55 394.01 96.27 394.35
  Z"
/>
<path fill="#a8abae" d="
  M 312.45 394.37
  Q 312.46 394.53 312.74 394.62
  Q 313.04 394.70 312.73 394.74
  L 307.20 395.35
  L 104.23 395.30
  L 103.95 395.09
  Q 103.50 394.76 104.05 394.65
  L 104.47 394.58
  L 312.45 394.37
  Z"
/>
<path fill="#545556" d="
  M 312.45 394.37
  Q 322.84 393.71 333.13 395.04
  Q 319.88 396.23 307.20 395.35
  L 312.73 394.74
  Q 313.04 394.70 312.74 394.62
  Q 312.46 394.53 312.45 394.37
  Z"
/>
</svg>
